<?xml version="1.0" standalone="no"?>
<!DOCTYPE svg PUBLIC "-//W3C//DTD SVG 20010904//EN"
 "http://www.w3.org/TR/2001/REC-SVG-20010904/DTD/svg10.dtd">
<svg version="1.0" xmlns="http://www.w3.org/2000/svg"
 width="718.000000pt" height="525.000000pt" viewBox="0 0 718.000000 525.000000"
 preserveAspectRatio="xMidYMid meet">

<g transform="translate(0.000000,525.000000) scale(0.100000,-0.100000)"
fill="#000000" stroke="none">
<path d="M1650 5240 c8 -5 22 -9 30 -9 10 0 8 3 -5 9 -27 12 -43 12 -25 0z"/>
<path d="M1821 5233 c27 -35 49 -43 49 -18 0 8 6 15 14 15 8 0 18 5 21 10 4 6
-14 10 -46 10 -48 0 -50 -1 -38 -17z"/>
<path d="M2008 5225 c-3 -13 -2 -22 3 -20 4 3 10 -1 12 -7 4 -10 8 -9 16 2 9
12 11 12 17 -3 3 -9 12 -17 20 -17 8 0 14 -7 14 -15 0 -9 -9 -15 -21 -15 -15
0 -19 -4 -15 -16 8 -21 -4 -65 -15 -58 -14 9 -10 -15 7 -42 12 -17 22 -23 35
-19 11 4 19 2 19 -4 0 -6 -4 -11 -10 -11 -5 0 -7 -7 -4 -15 4 -8 1 -15 -4 -15
-6 0 -13 8 -15 18 -3 9 -5 3 -6 -15 -1 -35 14 -52 32 -34 16 16 27 14 27 -5 0
-24 24 -11 30 17 4 15 12 23 23 21 11 -2 15 2 11 12 -3 8 -1 17 5 21 6 3 11 2
11 -3 0 -6 9 -8 20 -5 11 3 17 9 14 14 -3 5 2 6 10 3 10 -4 22 5 34 25 10 17
22 28 25 24 4 -3 20 -6 37 -5 21 0 30 -4 30 -15 0 -11 -7 -14 -24 -11 -18 4
-27 -1 -35 -19 -6 -13 -11 -30 -11 -38 0 -9 -10 -15 -26 -15 -14 0 -23 -4 -19
-10 3 -5 17 -10 30 -10 13 0 27 -5 31 -12 4 -7 3 -8 -4 -4 -7 4 -12 2 -12 -3
0 -13 17 -14 24 -2 3 5 19 11 35 13 28 4 29 4 14 -19 -8 -13 -19 -23 -24 -23
-5 0 -9 -7 -9 -16 0 -8 -11 -30 -23 -47 -14 -19 -29 -60 -36 -102 -7 -38 -21
-90 -32 -115 -11 -24 -22 -70 -24 -101 -3 -31 -9 -69 -15 -84 -8 -21 -8 -30 0
-35 8 -5 9 -18 2 -41 -10 -38 -5 -99 9 -99 5 0 9 -8 9 -17 0 -29 35 -164 41
-159 5 5 5 -67 1 -155 l-2 -37 -87 -21 c-94 -24 -218 -71 -268 -101 -16 -10
-47 -28 -69 -39 -175 -98 -263 -159 -342 -237 -46 -47 -102 -109 -123 -138
-45 -60 -119 -198 -146 -271 -42 -115 -83 -179 -213 -334 -39 -47 -98 -133
-148 -214 -16 -27 -36 -61 -45 -75 -9 -15 -21 -26 -27 -25 -5 1 -8 -7 -5 -17
3 -11 1 -20 -5 -20 -5 0 -13 -16 -16 -35 -4 -19 -11 -35 -16 -35 -6 0 -10 -7
-10 -15 0 -8 -4 -15 -9 -15 -5 0 -13 -9 -16 -20 -6 -19 -52 -50 -75 -50 -14 0
-13 63 2 78 19 19 -4 14 -31 -7 -19 -15 -23 -27 -23 -66 2 -60 10 -69 46 -50
37 19 39 19 26 -5 -6 -11 -22 -23 -35 -26 -24 -6 -35 -24 -15 -24 17 0 11 -16
-29 -76 -44 -64 -181 -213 -181 -195 0 18 -17 12 -23 -8 -2 -10 -27 -36 -55
-57 -30 -23 -53 -50 -57 -66 -4 -16 -11 -25 -19 -22 -17 7 -31 -27 -15 -37 16
-9 2 -29 -16 -22 -10 3 -15 -1 -15 -12 0 -9 -9 -28 -20 -42 -11 -14 -20 -31
-20 -38 0 -18 -70 -106 -79 -100 -5 2 -11 -5 -14 -16 -5 -18 -8 -19 -20 -8
-12 12 -12 15 2 26 23 18 0 16 -25 -2 -12 -8 -24 -11 -28 -8 -3 3 -6 -12 -6
-35 0 -35 3 -42 20 -42 11 0 20 6 20 14 0 7 9 16 20 19 11 3 20 1 20 -3 0 -13
-40 -82 -62 -106 -18 -20 -19 -39 -16 -294 2 -219 6 -274 17 -278 9 -3 11 2 6
18 -6 19 -4 21 14 15 25 -7 26 -2 7 28 -7 12 -16 41 -20 65 -6 39 -5 42 16 42
l22 0 -22 16 c-25 17 -29 34 -8 34 13 0 28 23 30 45 1 5 12 15 24 21 15 7 20
14 13 19 -33 20 32 35 69 15 15 -8 17 -6 13 10 -7 26 -19 33 -55 32 -19 0 -28
4 -25 11 3 7 9 11 15 10 6 -2 23 2 38 7 19 7 30 7 40 -1 14 -12 20 2 7 15 -12
11 -12 66 -1 66 7 0 7 5 2 13 -5 6 -9 26 -9 42 0 25 4 29 21 27 22 -3 51 38
40 57 -4 7 1 11 13 11 12 0 21 4 21 9 0 6 16 7 35 4 39 -6 45 5 15 32 -23 21
-17 38 11 30 22 -7 26 10 4 19 -8 3 -15 12 -15 21 0 18 12 19 28 3 9 -9 12 -6
12 15 0 15 5 27 10 27 6 0 8 11 4 25 -5 19 -2 25 10 25 9 0 16 7 16 15 0 8 -6
15 -14 15 -8 0 -18 5 -22 11 -4 8 11 10 50 7 42 -2 56 0 56 11 0 7 -6 11 -15
8 -8 -4 -17 -2 -20 3 -4 6 2 10 11 10 16 0 16 1 -2 15 -18 13 -18 14 -1 15 10
0 15 5 12 10 -9 15 24 25 38 11 6 -6 18 -11 26 -11 12 1 9 7 -9 22 l-25 21 43
-6 c23 -3 42 -1 42 4 0 5 -4 9 -8 9 -5 0 -16 6 -27 13 -16 13 -16 14 11 10 21
-3 32 1 42 16 11 19 10 21 -8 21 -11 0 -20 4 -20 9 0 13 30 22 43 14 14 -9 77
-11 77 -3 0 4 -5 11 -12 18 -9 9 -9 12 3 12 15 0 16 13 10 87 -1 7 -11 22 -23
33 l-23 21 23 19 c12 10 22 22 22 27 0 5 14 22 30 38 17 16 30 34 30 40 0 6
16 25 35 41 40 32 89 109 80 124 -3 5 3 18 15 30 11 11 17 20 14 20 -4 0 -1 7
6 15 10 11 10 15 0 15 -7 0 -4 13 10 35 12 19 17 35 11 35 -16 0 -13 14 7 36
10 10 16 27 14 38 -2 10 0 16 6 12 5 -3 13 6 16 20 12 48 68 155 97 187 16 17
29 37 29 44 0 7 6 13 13 13 7 0 31 21 53 47 21 26 51 60 67 76 15 16 27 33 27
38 0 5 5 9 10 9 6 0 10 7 10 15 0 13 32 67 50 85 3 3 6 14 7 25 1 11 7 43 14
72 10 43 16 54 43 65 17 7 51 11 74 10 41 -4 43 -2 37 17 -7 23 4 28 23 9 14
-14 52 -21 52 -10 0 4 -5 13 -12 20 -9 9 -8 18 2 39 15 32 16 37 18 76 2 25 5
27 25 21 12 -3 24 -11 25 -15 6 -16 19 -10 25 10 3 14 11 18 26 14 11 -3 18
-10 15 -15 -3 -5 -12 -7 -20 -4 -21 8 -17 -7 6 -27 12 -10 18 -22 15 -27 -7
-11 -35 -2 -35 11 0 5 -5 9 -11 9 -6 0 -8 -7 -5 -16 4 -9 1 -23 -5 -30 -13
-16 6 -48 23 -38 5 3 9 0 7 -7 -4 -34 2 -51 16 -45 10 4 15 -1 15 -15 0 -11 5
-17 10 -14 6 3 10 1 10 -5 0 -6 -6 -10 -12 -9 -7 1 -25 1 -40 0 -23 -1 -28 -6
-28 -26 0 -14 5 -25 10 -25 6 0 10 -7 10 -15 0 -8 7 -15 16 -15 10 0 14 -6 10
-15 -3 -8 2 -21 10 -30 14 -14 14 -19 0 -55 -15 -39 -15 -42 15 -117 17 -43
36 -85 44 -93 18 -22 38 -143 30 -182 -4 -18 -14 -43 -22 -55 -8 -12 -12 -26
-9 -32 3 -5 3 -17 0 -26 -6 -13 -9 -14 -16 -3 -7 9 -9 8 -5 -7 4 -21 -13 -45
-33 -45 -5 0 -10 -10 -9 -22 0 -22 1 -22 9 -3 8 18 9 18 9 -5 0 -14 -6 -36
-15 -50 -13 -22 -14 -22 -9 -3 3 12 1 24 -4 28 -6 3 -13 -6 -17 -20 -3 -14
-12 -25 -19 -25 -21 0 -27 -33 -11 -66 18 -39 14 -87 -7 -90 -20 -3 -32 12
-17 21 5 3 10 14 10 23 -1 13 -4 11 -14 -7 -7 -13 -11 -32 -9 -41 6 -23 50
-44 59 -28 4 7 10 5 16 -6 16 -28 31 -19 24 15 -6 31 6 59 25 59 5 0 9 -12 9
-26 0 -15 -4 -23 -11 -19 -7 5 -8 -4 -4 -27 6 -29 3 -35 -25 -51 -17 -11 -34
-16 -37 -13 -4 3 -13 -3 -20 -14 -17 -24 -9 -78 13 -87 11 -4 12 -9 4 -19 -13
-14 3 -54 20 -54 6 0 10 -9 10 -20 0 -11 5 -20 10 -20 13 0 1 52 -14 62 -6 4
-4 9 7 14 9 3 17 17 17 30 0 17 6 24 20 24 11 0 20 -7 20 -16 0 -8 -4 -12 -10
-9 -12 8 -13 -5 -1 -24 7 -10 10 -11 16 -1 6 10 10 10 19 -2 6 -8 19 -17 29
-21 12 -5 17 -1 17 13 0 11 5 20 11 20 6 0 9 9 6 20 -6 24 -1 25 19 6 21 -22
17 -44 -11 -62 -17 -11 -22 -20 -16 -28 4 -6 11 -27 15 -47 5 -28 2 -42 -13
-60 -24 -30 -35 -21 -21 16 14 38 6 43 -10 6 -7 -17 -24 -36 -39 -42 -22 -10
-27 -19 -28 -48 0 -25 2 -30 6 -17 6 17 9 15 20 -12 8 -18 19 -32 26 -32 16 0
8 35 -11 51 -8 6 -14 19 -14 28 1 14 2 14 14 -1 7 -10 17 -18 23 -18 5 0 15
-16 22 -35 10 -29 17 -35 32 -30 13 4 19 2 19 -9 0 -9 4 -16 10 -16 5 0 9 -18
7 -40 -1 -27 -6 -39 -14 -35 -7 2 -13 0 -13 -5 0 -20 -42 -21 -75 0 -41 25
-47 42 -36 93 8 32 7 38 -6 33 -8 -3 -18 -6 -23 -6 -4 0 -11 -7 -14 -16 -4
-12 -2 -15 9 -10 10 4 15 -1 15 -14 0 -13 -7 -20 -19 -20 -12 0 -22 -11 -28
-32 l-10 -33 -8 41 c-7 40 -8 41 -39 34 -17 -4 -38 -11 -46 -14 -11 -5 -16 0
-17 16 0 13 1 17 4 11 3 -9 14 -3 34 16 23 24 28 35 23 59 -5 23 -1 36 15 53
l20 22 -24 23 c-14 13 -25 29 -25 36 0 9 3 9 10 -2 7 -11 10 -7 10 18 0 20 -4
31 -10 27 -14 -9 -12 9 3 24 10 10 7 16 -13 31 -14 10 -27 16 -30 14 -2 -3 1
-8 7 -12 7 -4 11 -23 11 -41 l-1 -34 -19 37 c-10 20 -16 41 -13 46 3 6 2 10
-3 10 -5 0 -15 11 -22 25 -14 27 -24 25 -41 -7 -8 -15 -8 -19 0 -14 6 4 11 2
11 -4 0 -6 5 -8 10 -5 5 3 10 1 10 -4 0 -6 -4 -11 -8 -11 -5 0 -14 -11 -20
-25 -15 -32 -57 -36 -49 -5 3 11 1 18 -4 14 -18 -11 -8 27 11 43 11 10 20 27
20 39 0 12 7 27 15 34 8 7 15 17 15 22 0 18 -31 -14 -71 -73 l-38 -57 22 -16
c12 -10 17 -14 10 -11 -7 3 -25 -8 -41 -24 -16 -17 -38 -34 -49 -38 -12 -4
-49 -39 -82 -77 -46 -52 -60 -74 -55 -90 4 -15 3 -17 -4 -8 -8 12 -37 -25 -95
-125 -5 -7 0 -9 15 -5 14 3 19 2 14 -6 -4 -7 -15 -12 -25 -12 -16 0 -101 -80
-101 -95 0 -4 -14 -26 -30 -51 -26 -37 -60 -113 -60 -133 0 -15 49 56 50 71 0
11 5 15 15 12 8 -4 12 -10 9 -15 -3 -5 2 -17 11 -26 11 -10 14 -24 10 -37 -13
-42 -18 -71 -10 -64 5 4 15 3 22 -4 17 -14 33 4 33 38 0 19 30 64 43 64 12 0
-2 -90 -17 -105 -19 -19 -21 -35 -5 -35 8 0 7 -5 -1 -15 -7 -9 -15 -13 -18
-10 -3 2 -10 -3 -17 -11 -9 -13 -16 -14 -33 -5 -19 10 -21 9 -15 -5 4 -12 3
-15 -5 -10 -8 4 -10 -3 -7 -24 2 -17 -5 -51 -15 -74 -19 -44 -36 -145 -31
-181 1 -11 8 -26 16 -33 9 -11 10 -21 2 -43 -13 -34 -1 -51 18 -26 13 18 14
18 25 -2 6 -12 15 -19 20 -16 6 4 7 -1 3 -11 -4 -12 -3 -15 6 -10 9 6 12 1 9
-15 -2 -17 -10 -24 -25 -25 -13 -1 -27 -2 -31 -3 -13 -2 -35 -108 -35 -166 0
-55 10 -63 54 -45 35 15 36 24 5 55 -15 15 -20 26 -13 28 8 3 5 11 -8 21 -13
10 -15 15 -6 16 8 0 11 7 9 18 -9 32 16 54 48 45 16 -4 36 -6 44 -5 11 2 15
-8 15 -40 0 -46 -11 -72 -26 -63 -5 4 -9 1 -9 -4 0 -13 20 -14 39 -2 9 6 13
29 13 76 0 52 4 72 18 87 17 18 19 18 28 3 6 -13 11 -14 17 -6 5 9 10 9 21 0
11 -9 13 -6 10 19 -4 38 27 73 46 54 9 -9 7 -17 -10 -32 -12 -12 -22 -26 -22
-31 0 -6 9 -1 20 12 l21 24 -6 -35 c-6 -31 -18 -46 -72 -91 -7 -5 -13 -7 -13
-3 0 4 -9 -1 -19 -10 -12 -11 -19 -30 -18 -52 1 -20 -5 -39 -12 -44 -8 -4 -10
-13 -7 -19 4 -6 12 -8 18 -5 6 4 8 -2 4 -17 -3 -13 -3 -18 0 -11 3 6 14 12 24
12 10 0 20 -6 23 -12 3 -10 9 -10 27 0 22 14 23 13 16 -19 -6 -32 -6 -32 13
-13 13 13 16 24 10 36 -12 22 -1 48 17 41 11 -4 15 -18 12 -47 -2 -38 -1 -41
21 -38 19 3 22 0 17 -13 -3 -9 -6 -20 -6 -23 0 -4 -4 -2 -8 5 -11 18 -28 2
-35 -34 -7 -36 10 -45 33 -18 8 9 17 12 22 7 11 -11 0 -42 -16 -42 -15 0 -36
-48 -29 -66 8 -22 -25 -28 -47 -9 -19 17 -20 17 -20 -4 0 -12 4 -19 10 -16 5
3 7 0 4 -9 -6 -16 -34 -30 -43 -21 -3 4 -6 24 -6 46 0 42 -2 43 -63 41 -31 -1
-34 1 -28 23 4 14 2 25 -4 25 -5 0 -10 7 -10 15 0 8 -5 15 -10 15 -15 0 -30
-43 -19 -55 20 -21 -2 -132 -28 -142 -10 -4 -4 -12 17 -24 35 -22 129 -26 148
-7 9 9 12 9 12 0 0 -8 23 -12 73 -12 62 0 74 3 85 21 10 16 16 18 27 9 9 -7
15 -8 20 0 11 17 35 12 28 -7 -4 -10 -2 -14 4 -10 6 4 13 1 16 -5 2 -7 8 -10
12 -6 4 4 3 14 -4 21 -8 10 -8 22 0 46 13 36 24 39 39 12 15 -29 12 -59 -7
-70 -16 -9 -16 -10 5 -11 14 0 22 6 22 17 0 15 1 15 18 0 25 -23 92 -20 92 3
0 9 8 24 19 34 20 19 33 10 46 -33 6 -19 9 -21 17 -10 7 11 11 11 15 2 7 -19
108 -17 137 2 27 18 40 74 29 125 -5 27 -8 30 -17 19 -6 -8 -21 -20 -34 -27
-21 -12 -22 -11 -17 23 2 19 -1 37 -7 41 -7 4 -8 3 -4 -4 4 -7 3 -12 -2 -12
-6 0 -13 11 -16 25 -4 17 0 31 14 45 l20 20 0 -39 c0 -45 6 -52 35 -40 17 6
17 8 3 8 -10 1 -18 6 -18 11 0 17 31 60 44 60 13 0 36 54 36 83 0 9 -4 17 -10
17 -5 0 -10 -10 -10 -22 0 -19 -2 -20 -10 -8 -7 11 -10 5 -10 -25 l0 -40 -20
30 c-11 17 -20 26 -20 20 0 -5 -5 -3 -10 5 -8 11 -9 8 -4 -12 4 -18 2 -28 -5
-28 -6 0 -11 5 -11 12 0 18 -15 -2 -28 -37 -6 -16 -17 -43 -24 -60 -6 -16 -13
-37 -13 -45 -1 -8 -3 -24 -4 -35 -2 -14 -7 -9 -16 18 -15 41 -9 73 19 96 18
15 21 58 6 81 -8 12 -10 9 -10 -12 0 -20 -4 -26 -15 -22 -21 8 -19 -13 3 -25
14 -8 15 -12 3 -23 -11 -10 -14 -10 -18 -1 -3 9 -10 10 -23 3 -10 -5 -25 -7
-33 -4 -10 3 -18 -2 -22 -15 -3 -12 -11 -19 -16 -16 -5 4 -9 1 -9 -5 0 -6 -8
-10 -17 -8 -14 2 -17 -3 -15 -22 2 -30 -52 -101 -65 -85 -4 6 -17 15 -29 21
-16 10 -25 9 -41 -5 -12 -9 -23 -24 -25 -33 -2 -13 -7 -15 -18 -8 -12 8 -13
13 -3 29 7 11 10 27 7 36 -4 11 -2 14 9 9 12 -4 15 3 15 32 0 37 -1 37 -13 15
-9 -17 -14 -20 -17 -10 -5 14 9 50 23 59 4 3 17 26 27 51 15 35 27 48 46 51
15 3 30 0 34 -7 4 -6 20 -20 35 -30 24 -16 30 -16 38 -4 5 8 9 21 9 30 0 17
39 58 41 43 1 -5 2 -16 3 -24 2 -8 3 -25 4 -37 2 -16 7 -20 23 -16 15 4 19 11
15 28 -8 31 18 79 62 115 20 16 40 30 43 30 13 0 19 -33 9 -45 -8 -10 -8 -19
2 -34 19 -30 42 -27 34 4 -8 30 17 35 33 8 8 -14 11 -15 11 -3 1 8 3 23 5 32
3 15 -2 17 -26 13 -16 -3 -29 -1 -29 5 0 14 40 32 60 27 12 -3 22 4 31 19 7
13 17 24 23 24 6 0 12 12 13 27 1 22 -1 24 -9 10 -5 -10 -13 -15 -17 -12 -5 2
-11 -5 -14 -17 -4 -12 -9 -19 -13 -15 -4 4 -13 -1 -20 -11 -13 -16 -13 -16
-14 1 0 9 -5 17 -11 17 -6 0 -4 9 5 21 16 23 12 44 -13 71 -48 52 -51 61 -16
52 20 -5 26 -1 35 21 14 37 30 22 30 -31 0 -24 5 -44 10 -44 6 0 10 5 10 12 0
17 17 -3 23 -27 3 -11 5 -1 6 22 1 27 -7 55 -19 75 -21 35 -26 53 -11 44 5 -3
12 11 16 31 5 27 9 33 16 22 7 -10 9 -6 8 16 -1 17 6 44 15 60 9 17 16 38 16
48 0 11 8 17 21 17 15 0 19 5 15 15 -9 24 4 46 24 40 14 -5 18 3 24 45 8 57
18 62 43 23 22 -35 35 -44 48 -34 18 13 36 7 51 -19 l14 -25 -2 35 -3 35 -47
-3 c-41 -3 -48 -1 -48 15 0 10 5 25 10 33 9 13 11 13 19 1 11 -17 49 -22 57
-9 10 16 -3 20 -25 8 -26 -13 -28 5 -5 35 15 20 15 20 32 0 19 -23 47 -22 56
1 4 11 0 13 -19 8 -42 -11 -29 19 19 42 41 20 44 20 65 5 15 -12 21 -25 18
-42 -2 -13 -2 -18 0 -11 4 11 15 15 30 10 13 -5 2 -32 -18 -46 -10 -7 -19 -20
-19 -28 0 -8 -5 -14 -11 -14 -6 0 -8 11 -4 29 5 24 2 29 -16 34 -22 6 -22 7
-5 26 10 11 15 25 11 30 -9 15 -28 14 -22 -1 2 -7 -2 -27 -10 -45 -16 -39 -18
-77 -3 -53 9 13 10 13 11 0 2 -28 -3 -55 -12 -65 -6 -5 -9 -3 -9 8 0 10 -8 17
-20 17 -13 0 -20 -7 -20 -19 0 -25 15 -30 70 -22 36 5 46 10 48 28 2 14 8 20
18 16 10 -4 14 3 14 23 0 22 3 25 9 14 12 -18 3 -72 -15 -86 -19 -15 -18 -28
1 -20 18 7 20 -5 3 -22 -10 -10 -10 -15 2 -22 12 -8 12 -10 -3 -16 -11 -4 -17
-15 -15 -27 2 -11 -3 -22 -11 -25 -10 -3 -12 1 -8 17 3 11 2 21 -3 21 -12 0
-20 -28 -14 -45 10 -26 -7 -38 -23 -16 -18 27 -1 93 23 84 10 -4 14 3 14 25 0
22 -4 30 -16 28 -20 -3 -34 -25 -27 -43 8 -20 -50 -20 -74 -1 -7 6 -13 7 -14
2 0 -5 -4 0 -9 11 -6 14 -9 15 -9 5 -1 -9 8 -24 20 -33 16 -15 18 -21 9 -33
-7 -8 -19 -14 -27 -14 -10 0 -12 -6 -8 -20 4 -11 2 -20 -4 -20 -6 0 -11 5 -11
10 0 21 -18 9 -25 -17 -3 -15 -12 -31 -18 -35 -9 -6 -9 -8 1 -8 17 0 15 -29
-3 -36 -8 -4 -15 -12 -15 -20 0 -7 -9 -18 -20 -24 -11 -6 -20 -15 -20 -21 0
-6 -12 -24 -27 -40 -20 -21 -27 -37 -25 -59 2 -16 -1 -31 -7 -31 -26 -3 -30
-4 -36 -11 -11 -10 -14 -178 -4 -178 5 0 9 15 9 33 0 18 7 43 16 55 13 19 13
26 3 38 -10 13 -10 17 2 24 19 12 28 -15 18 -55 -5 -16 -11 -52 -14 -79 -5
-36 -11 -50 -26 -53 -10 -3 -19 -12 -19 -20 0 -8 -5 -11 -11 -8 -6 4 -8 14 -5
22 4 9 2 21 -3 27 -5 6 -11 20 -13 31 -2 11 -4 -24 -4 -78 -1 -53 1 -97 4 -97
3 0 18 15 33 33 28 32 28 32 29 7 0 -15 -12 -36 -29 -53 -35 -32 -37 -33 -44
-7 -8 31 -25 23 -33 -15 -4 -22 -2 -41 6 -50 12 -14 10 -42 -5 -78 -7 -16 5
-17 163 -17 142 0 173 3 186 16 14 14 17 14 22 0 5 -13 28 -15 133 -15 l127 0
2 30 c2 27 0 29 -17 19 -21 -10 -51 -4 -51 11 0 5 7 9 15 9 8 0 15 3 15 8 0 4
9 13 21 20 18 12 23 10 40 -9 11 -13 17 -29 14 -36 -2 -8 -1 -11 4 -8 19 11
23 -17 5 -30 -17 -13 -4 -14 99 -15 105 0 117 2 117 18 0 13 2 14 9 3 7 -11
13 -10 36 5 25 16 26 19 9 24 -10 4 -33 1 -51 -7 -26 -10 -33 -11 -33 -1 0 9
-3 10 -8 2 -12 -19 -69 -25 -82 -9 -10 12 -9 16 4 21 9 3 15 16 14 30 -3 29
-18 33 -18 5 0 -31 -14 -32 -43 -5 -28 25 -28 44 -1 44 16 0 18 18 5 38 -7 11
-9 11 -14 -1 -4 -10 -13 -13 -26 -10 -17 4 -19 12 -16 56 4 42 2 48 -6 32 -6
-11 -38 -46 -71 -78 -53 -52 -62 -57 -76 -44 -10 8 -24 17 -34 20 -19 7 -81
-36 -70 -48 4 -4 -4 -5 -18 -2 -14 4 -28 7 -32 7 -5 0 -8 5 -8 10 0 6 12 10
28 10 25 1 26 2 9 14 -13 10 -28 11 -55 5 -50 -11 -52 -11 -52 6 0 11 12 14
47 13 27 0 49 4 51 11 2 6 8 8 14 5 11 -7 37 25 38 47 0 9 9 19 19 22 11 3 22
17 26 36 4 18 11 28 17 25 6 -4 13 -2 17 4 4 7 18 13 31 14 20 2 24 -1 22 -17
l-4 -20 16 20 c9 12 15 15 16 7 0 -7 4 -10 10 -7 5 3 10 0 10 -7 1 -9 5 -8 13
4 9 11 18 13 29 7 12 -7 24 2 52 35 20 25 36 50 36 58 0 18 29 58 42 58 5 0 7
-7 4 -16 -5 -14 -4 -15 9 -4 19 16 85 24 85 10 0 -5 7 -10 15 -10 8 0 15 7 15
16 0 8 5 12 11 9 6 -4 17 1 25 11 13 18 15 18 28 1 13 -17 46 -14 46 4 0 4 -6
6 -14 3 -7 -3 -16 2 -20 11 -3 10 1 18 12 22 9 4 20 10 23 15 3 5 18 10 32 12
14 1 32 7 39 13 31 24 48 23 60 -5 l12 -27 4 27 c2 16 8 28 13 28 18 0 59 -49
60 -72 1 -19 2 -18 8 6 9 44 27 42 46 -6 11 -28 13 -44 6 -46 -17 -6 -13 -32
4 -32 8 0 15 6 15 14 0 18 27 29 36 14 4 -7 9 -6 15 3 6 10 12 4 23 -21 9 -21
15 -28 16 -17 0 14 5 17 20 12 16 -5 20 -2 20 19 0 14 4 27 9 31 15 9 24 -14
12 -29 -8 -10 -8 -20 3 -40 11 -21 11 -36 3 -68 -8 -31 -7 -43 1 -46 8 -2 10
-14 5 -30 -5 -24 -4 -25 9 -14 11 9 14 24 11 56 -4 34 -2 44 11 49 11 4 19 1
22 -11 3 -9 10 -25 15 -34 5 -11 5 -19 -1 -23 -6 -3 -10 -13 -10 -22 0 -9 -7
-24 -15 -33 -14 -15 -14 -21 0 -53 8 -21 20 -37 25 -37 6 0 10 -4 10 -10 0 -5
-9 -10 -21 -10 -11 0 -18 -4 -15 -9 8 -12 31 -8 53 10 10 7 28 20 41 27 19 10
22 10 22 -3 0 -22 41 0 47 26 3 10 9 19 14 19 12 0 11 -14 -2 -27 -8 -8 -4
-19 15 -40 27 -29 35 -49 14 -37 -10 6 -10 4 0 -7 6 -7 12 -28 12 -46 0 -20 5
-33 13 -33 6 0 22 -3 35 -6 29 -8 30 18 0 31 -17 8 -22 19 -24 57 -1 27 -7 54
-13 62 -10 12 -8 21 10 45 24 33 38 39 43 19 2 -7 8 -28 14 -47 9 -27 8 -38
-3 -55 -19 -26 -19 -36 0 -36 8 0 15 5 15 11 0 7 10 5 25 -5 14 -9 25 -12 25
-7 0 6 -9 15 -20 21 -21 11 -28 40 -10 40 6 0 10 11 10 25 0 14 4 25 8 25 17
0 32 -25 32 -52 0 -33 20 -79 31 -72 12 7 11 51 -1 59 -5 3 -10 23 -10 44 0
37 -19 68 -33 54 -4 -3 -7 0 -7 8 0 8 9 21 20 29 28 20 25 29 -10 28 -22 -1
-29 -5 -26 -14 3 -8 -4 -18 -14 -24 -15 -8 -20 -8 -20 2 0 6 -7 3 -15 -8 -14
-19 -15 -18 -21 4 -10 35 -50 26 -47 -10 1 -25 1 -26 -18 -10 -10 9 -19 27
-19 40 0 20 -4 22 -36 19 -24 -3 -44 -13 -59 -32 -16 -17 -30 -25 -40 -21 -9
3 -13 10 -10 16 4 6 11 7 17 4 8 -5 9 6 4 34 -5 34 -3 43 13 51 13 7 18 18 15
33 -2 13 -1 17 2 10 5 -10 9 -10 22 0 10 8 13 9 9 1 -4 -6 -3 -14 2 -18 6 -3
8 -12 5 -19 -3 -9 3 -13 18 -12 13 0 23 6 24 11 0 6 4 18 8 27 11 24 29 12 21
-13 -9 -28 9 -23 25 6 8 16 16 21 20 14 5 -7 9 -5 13 5 4 10 1 16 -8 16 -23 0
-28 20 -9 41 23 26 44 24 44 -4 0 -12 9 -28 20 -35 15 -9 20 -9 20 0 0 9 3 8
13 -1 10 -11 10 -14 0 -18 -7 -3 -13 -9 -13 -15 0 -6 6 -6 15 2 20 17 19 37
-2 49 -16 9 -16 12 -3 21 21 14 30 12 30 -5 0 -8 5 -15 10 -15 13 0 13 6 -1
32 -9 17 -7 25 16 45 30 29 37 26 39 -16 1 -16 5 -27 9 -24 4 3 14 -1 22 -7
12 -10 20 -6 45 20 35 38 42 68 10 48 -23 -15 -39 -3 -19 15 8 6 22 21 29 32
15 18 14 19 -9 3 -13 -9 -31 -28 -41 -42 l-16 -26 -17 36 c-10 19 -22 32 -27
29 -6 -3 -10 1 -10 9 0 9 4 16 10 16 5 0 7 14 3 33 -9 51 -9 52 10 49 9 -2 17
2 17 8 0 5 5 10 10 10 6 0 10 -7 10 -16 0 -8 4 -12 10 -9 6 3 10 22 10 41 0
37 24 49 34 16 3 -9 4 -4 2 11 -3 21 0 27 10 23 8 -3 14 1 14 9 0 8 5 15 11
15 27 0 -32 41 -64 44 -5 1 -16 14 -25 29 -16 27 -16 29 3 43 16 12 21 12 24
2 7 -24 36 -53 55 -56 10 -2 16 2 14 8 -2 6 -7 11 -11 10 -13 -1 -37 27 -37
44 0 9 -4 16 -9 16 -5 0 -8 11 -8 25 0 13 3 22 8 20 4 -3 10 -1 14 5 9 15 25
12 25 -5 0 -21 41 -36 58 -22 8 7 16 7 20 1 13 -17 35 -15 58 7 13 12 27 20
30 17 9 -10 36 -180 31 -199 -3 -11 -2 -17 2 -14 4 2 15 -21 25 -51 9 -30 34
-92 55 -137 61 -129 71 -156 60 -162 -5 -4 -9 -10 -9 -16 0 -14 28 -11 33 4 3
7 8 5 12 -8 5 -11 16 -31 25 -45 9 -14 27 -56 40 -93 20 -56 22 -72 12 -87
-20 -33 -14 -71 21 -116 l32 -43 166 -1 c129 0 173 3 195 15 l29 15 -32 0
c-39 0 -51 15 -20 25 21 6 21 7 -7 19 -36 16 -65 75 -42 88 8 5 12 16 9 28 -3
11 0 26 6 33 6 8 10 16 8 18 -1 2 2 1 7 -3 6 -5 17 -8 25 -8 13 1 13 2 -1 11
-10 5 -18 17 -18 24 0 8 -6 15 -14 15 -13 0 -26 20 -26 41 0 5 9 9 19 9 25 0
36 16 16 24 -8 3 -15 10 -15 15 0 7 27 9 71 6 60 -3 69 -2 59 11 -8 9 -21 12
-37 8 -13 -4 -34 -2 -46 4 -12 6 -31 13 -42 17 -19 6 -19 7 -2 16 13 8 25 6
42 -5 36 -23 42 -19 15 9 -13 14 -28 25 -33 25 -18 0 -55 48 -61 82 -23 116
-24 133 -8 146 22 17 32 15 26 -5 -5 -15 -3 -15 10 2 15 17 15 20 1 28 -9 5
-21 21 -27 35 -12 29 -10 31 -33 -35 -4 -13 -11 -23 -14 -23 -16 0 -19 13 -11
35 6 17 5 27 -6 35 -19 17 -18 40 3 40 13 0 14 3 5 12 -9 9 -17 6 -33 -13 -20
-23 -21 -23 -15 -3 11 37 -27 23 -46 -16 -9 -19 -17 -29 -17 -22 -1 7 -6 10
-12 7 -7 -5 -8 5 -4 32 5 32 4 36 -7 22 -11 -14 -15 -14 -26 -3 -13 15 -16 44
-4 44 4 0 14 -6 21 -12 10 -11 12 -9 9 7 -6 32 13 45 40 27 19 -12 22 -12 17
0 -3 8 1 28 10 44 8 16 15 23 15 16 0 -10 3 -10 15 2 19 18 19 32 1 39 -10 4
-13 1 -9 -9 3 -7 1 -14 -5 -14 -14 0 -22 25 -22 70 0 24 -5 40 -15 44 -26 9
-17 27 10 20 14 -3 25 -3 25 1 0 12 -30 36 -39 31 -8 -5 -17 14 -26 54 -2 8
-8 16 -13 18 -6 2 -8 11 -5 22 3 10 -2 33 -10 52 -18 38 -31 98 -23 98 4 0 16
-15 27 -32 12 -18 18 -24 13 -13 -4 11 -7 34 -7 52 1 19 -4 34 -13 37 -8 3
-14 10 -14 15 0 6 7 8 15 5 17 -7 21 11 5 21 -5 3 -10 15 -10 25 0 17 4 18 25
10 16 -6 25 -6 25 0 0 6 -3 10 -7 10 -5 0 -16 12 -26 26 -14 18 -16 28 -8 38
9 11 -3 14 -66 15 -43 1 -79 -3 -83 -8 -3 -6 -23 -12 -43 -13 -25 -2 -37 -8
-38 -18 0 -10 -4 -7 -11 7 -6 12 -19 23 -29 26 -11 3 -17 1 -14 -3 3 -5 1 -11
-5 -15 -5 -3 -10 1 -10 9 0 9 -7 16 -16 16 -13 0 -15 -7 -9 -37 5 -28 4 -35
-4 -27 -6 6 -15 30 -20 55 l-9 44 -1 -46 c-1 -25 5 -54 13 -64 12 -17 11 -20
-12 -32 -21 -11 -27 -11 -34 -1 -10 17 -10 28 1 28 11 0 23 78 14 93 -4 7 -6
25 -5 42 1 16 -1 24 -4 18 -3 -7 -12 -13 -20 -13 -10 0 -14 12 -14 40 0 22 -4
40 -9 40 -4 0 -6 12 -4 27 3 21 2 24 -6 13 -7 -11 -12 -1 -18 40 -4 30 -7 62
-6 70 1 7 -8 22 -20 33 -15 13 -22 30 -22 58 0 40 -10 52 -18 21 -3 -9 -5 3
-5 28 0 85 -1 96 -12 80 -7 -11 -10 -2 -10 33 0 26 -4 47 -10 47 -5 0 -10 7
-10 15 0 8 -4 15 -10 15 -5 0 -10 15 -10 34 0 19 -5 38 -10 41 -6 4 -8 21 -4
39 3 18 -1 55 -8 82 -8 27 -14 86 -13 132 0 46 -2 85 -7 88 -4 3 -10 31 -14
64 -4 41 -11 60 -20 60 -17 0 -19 20 -1 20 6 0 -1 10 -16 21 -20 16 -26 27
-22 43 4 13 3 16 -2 9 -7 -10 -13 -8 -26 7 -19 23 -22 40 -7 40 7 0 6 8 -1 23
-12 22 -13 22 -27 -13 -11 -24 -17 -30 -19 -18 -4 14 -46 34 -65 30 -5 -1 -8
11 -8 27 0 21 6 32 21 36 16 5 19 12 15 31 -5 19 -3 22 11 17 10 -4 22 -11 26
-17 5 -6 6 5 3 24 -4 21 -3 30 3 22 6 -10 11 -5 20 19 6 17 11 42 11 54 0 12
3 25 8 29 4 4 7 36 7 71 1 58 -1 62 -18 51 -14 -9 -20 -8 -27 4 -8 13 -13 13
-39 -3 -35 -21 -41 -21 -41 -4 0 8 -7 14 -15 14 -8 0 -15 -4 -15 -9 0 -4 -3
-8 -7 -8 -5 0 -8 20 -8 45 0 25 3 45 8 45 4 0 7 7 7 15 0 8 -3 15 -7 15 -5 0
-8 11 -8 25 0 14 3 25 8 25 4 0 7 7 7 16 0 13 -5 12 -34 -5 -26 -16 -35 -18
-39 -9 -8 19 -27 -11 -19 -30 3 -10 0 -13 -9 -10 -9 3 -26 -15 -47 -51 -18
-31 -51 -83 -72 -116 -41 -63 -63 -98 -109 -178 -24 -42 -29 -46 -34 -28 -3
12 -2 21 2 21 9 0 8 42 -2 58 -5 7 -10 32 -12 55 -2 32 -7 41 -19 39 -24 -4
-19 8 20 58 35 43 37 44 31 15 -6 -28 -5 -28 8 5 8 19 23 51 34 70 114 215
121 236 145 420 9 63 24 146 34 185 17 60 20 66 27 45 8 -25 8 -25 22 9 8 19
25 48 37 65 25 33 32 57 45 146 5 30 13 73 19 95 6 22 11 74 11 115 1 41 2 91
4 110 3 50 -21 179 -41 220 -13 25 -23 34 -37 32 -15 -3 -17 -1 -7 11 10 11 8
20 -10 43 -12 16 -30 35 -40 42 -10 7 -18 21 -18 32 0 20 -48 64 -101 94 -21
12 -29 20 -21 24 8 2 27 -5 43 -17 16 -12 29 -18 29 -14 0 4 -14 17 -30 28
-16 11 -30 25 -30 31 0 7 -16 15 -36 19 -20 3 -48 19 -63 34 -29 30 -82 56
-103 48 -7 -2 -24 4 -38 13 -20 14 -35 16 -67 11 -23 -5 -48 -4 -55 0 -7 5
-22 8 -33 8 -18 0 -18 -1 3 -9 33 -14 27 -20 -18 -20 -22 0 -40 5 -40 11 0 5
4 8 9 4 5 -3 12 -1 16 5 3 5 -3 10 -14 10 -11 0 -22 -4 -25 -9 -3 -5 -18 -11
-33 -14 -16 -2 -50 -13 -76 -23 -42 -16 -49 -17 -57 -4 -13 20 -13 43 0 35 6
-3 10 3 10 14 0 12 9 30 20 41 l20 20 -319 0 c-292 -1 -319 -2 -314 -17 6 -15
4 -15 -17 0 -19 13 -47 17 -121 17 -95 0 -97 0 -101 -25z m74 -17 c-15 -15
-26 -4 -18 18 5 13 9 15 18 6 9 -9 9 -15 0 -24z m588 -8 c-8 -5 -17 -7 -21 -4
-13 8 -31 -25 -24 -46 6 -19 4 -20 -22 -14 -15 4 -38 15 -50 24 -21 16 -21 18
-5 33 9 8 36 18 60 22 23 4 42 11 42 17 0 5 7 2 17 -7 13 -14 14 -18 3 -25z
m-510 15 c0 -8 -7 -15 -15 -15 -26 0 -18 20 13 29 1 1 2 -6 2 -14z m60 -15 c0
-5 -5 -10 -11 -10 -5 0 -7 5 -4 10 3 6 8 10 11 10 2 0 4 -4 4 -10z m71 -13
c-10 -9 -11 -8 -5 6 3 10 9 15 12 12 3 -3 0 -11 -7 -18z m425 -3 c-3 -9 -6
-20 -6 -25 0 -6 -4 -8 -9 -4 -5 3 -12 1 -16 -5 -3 -5 -16 -10 -28 -10 -21 1
-20 2 4 15 15 8 29 21 33 30 3 8 10 15 17 15 6 0 8 -7 5 -16z m-287 -27 c8
-22 8 -27 -2 -24 -6 2 -11 12 -11 21 2 18 -23 18 -43 -1 -17 -16 -16 -32 2
-39 21 -8 19 -31 -2 -31 -30 0 -45 24 -38 60 10 43 8 42 49 43 30 0 37 -4 45
-29z m60 1 c-3 -27 1 -39 14 -36 7 2 14 0 15 -4 1 -5 0 -8 -3 -8 -3 0 -22 0
-42 0 -27 0 -34 3 -26 11 6 6 9 18 6 27 -4 10 -2 13 5 8 7 -4 12 -2 12 3 0 6
5 11 10 11 6 0 10 -6 9 -12z m703 -7 c4 -1 5 -8 2 -16 -5 -11 -11 -12 -25 -4
-24 12 -25 28 -1 24 9 -2 20 -4 24 -4z m128 -27 c0 -2 -11 -4 -25 -4 -14 0
-25 4 -25 9 0 4 11 6 25 3 14 -2 25 -6 25 -8z m-1050 -18 c0 -2 -7 -9 -15 -16
-12 -10 -15 -10 -15 4 0 9 7 16 15 16 8 0 15 -2 15 -4z m295 -26 c4 -6 11 -8
16 -5 5 4 9 2 9 -3 0 -8 -42 -32 -55 -32 -3 0 -5 7 -5 15 0 9 -6 12 -15 9 -8
-4 -15 -2 -15 4 0 20 54 30 65 12z m-80 -45 c-11 -8 -26 -19 -33 -26 -7 -6
-16 -9 -19 -6 -8 9 7 28 31 37 33 13 43 11 21 -5z m-315 -5 c0 -5 -7 -10 -15
-10 -8 0 -15 5 -15 10 0 6 7 10 15 10 8 0 15 -4 15 -10z m-41 -44 c7 -8 8 -17
3 -20 -6 -3 -12 3 -15 14 -6 24 -4 25 12 6z m237 -13 c-10 -10 -19 5 -10 18 6
11 8 11 12 0 2 -7 1 -15 -2 -18z m1169 -43 c10 -11 16 -20 13 -20 -3 0 -13 9
-23 20 -10 11 -16 20 -13 20 3 0 13 -9 23 -20z m-773 -402 c-7 -7 -12 -8 -12
-2 0 6 3 14 7 17 3 4 9 5 12 2 2 -3 -1 -11 -7 -17z m139 -61 c-10 -9 -11 -8
-5 6 3 10 9 15 12 12 3 -3 0 -11 -7 -18z m786 -154 c-3 -10 -5 -4 -5 12 0 17
2 24 5 18 2 -7 2 -21 0 -30z m-797 -18 c0 -8 -4 -15 -10 -15 -5 0 -10 7 -10
15 0 8 5 15 10 15 6 0 10 -7 10 -15z m265 -60 c8 -16 23 -51 34 -76 20 -47 80
-109 105 -109 7 0 27 -18 45 -40 35 -43 71 -52 101 -25 14 13 19 13 36 1 17
-13 19 -26 17 -138 -3 -130 -12 -172 -67 -311 -29 -72 -91 -157 -115 -157 -5
0 -11 -5 -13 -12 -3 -7 -9 -8 -18 -3 -7 5 -25 9 -40 9 -27 1 -82 39 -97 67
-14 27 -137 133 -140 122 -2 -6 17 -42 43 -79 59 -87 68 -111 50 -129 -7 -8
-16 -11 -20 -8 -3 3 -12 0 -21 -7 -12 -10 -16 -9 -21 4 -3 9 -10 13 -15 10 -5
-3 -9 0 -9 6 0 7 -7 10 -15 6 -12 -4 -14 0 -9 19 5 22 3 25 -23 25 -15 0 -45
-9 -65 -20 -34 -18 -39 -18 -73 -4 -21 8 -46 23 -56 33 -13 12 -29 16 -46 13
-45 -8 -70 50 -39 91 13 17 15 16 44 -8 l31 -26 16 38 c22 51 31 123 16 123
-18 0 -13 13 14 40 71 71 58 67 122 35 32 -16 66 -35 76 -44 41 -34 85 -39
176 -18 7 2 33 22 57 45 24 24 57 45 75 49 19 3 34 13 36 25 3 10 11 18 19 18
16 0 9 26 -15 53 -12 14 -24 17 -48 12 -25 -4 -35 -2 -39 9 -5 12 -11 13 -25
5 -10 -5 -19 -7 -19 -5 0 3 -19 -2 -42 -10 -23 -8 -77 -16 -120 -17 -43 -1
-78 -5 -78 -9 0 -8 -47 -4 -56 5 -4 3 -25 4 -48 1 -31 -5 -55 -1 -89 15 -25
12 -52 21 -60 21 -45 0 -97 40 -97 75 0 15 38 -1 97 -40 71 -48 78 -51 88 -35
3 5 -16 20 -42 34 -49 25 -85 58 -96 88 -7 20 13 28 60 24 20 -2 30 1 26 7 -4
7 1 8 13 3 10 -4 45 -16 77 -27 31 -10 73 -30 92 -44 50 -39 160 -75 228 -75
31 0 57 4 57 10 0 6 -14 10 -30 10 -32 0 -93 22 -117 42 -11 9 -10 13 4 24 16
12 15 13 -11 11 -16 -1 -31 4 -34 11 -3 11 6 12 42 7 25 -4 58 -4 73 0 27 6
27 6 -15 25 -43 19 -77 62 -87 111 -7 30 22 97 59 137 19 22 21 22 24 5 2 -10
10 -31 17 -48z m-120 18 c-4 -10 -8 -37 -10 -61 -1 -24 -6 -46 -9 -49 -11 -11
-6 86 6 112 13 28 25 26 13 -2z m-165 -13 c0 -11 -9 -34 -20 -52 l-20 -33 0
32 c0 41 17 86 30 78 5 -3 10 -15 10 -25z m-67 -5 c-3 -9 -8 -14 -10 -11 -3 3
-2 9 2 15 9 16 15 13 8 -4z m66 -79 c-13 -19 -25 -33 -27 -32 -1 2 7 20 19 40
12 20 24 35 27 32 3 -3 -6 -21 -19 -40z m15 -71 c7 -38 6 -39 -10 -23 -12 11
-15 24 -10 43 9 34 11 31 20 -20z m550 -74 c-2 -3 -12 3 -22 13 -16 17 -16 18
5 5 12 -7 20 -15 17 -18z m-224 -261 c-20 -5 -39 -5 -44 1 -6 5 7 9 35 8 l44
-1 -35 -8z m-577 -124 c3 -8 -3 -23 -14 -35 -10 -11 -18 -24 -18 -28 3 -13
-15 -48 -26 -49 -5 -1 -22 -4 -38 -8 -21 -5 -29 -2 -34 11 -4 10 -9 20 -13 23
-3 3 -11 22 -17 42 -10 35 -10 38 16 47 42 15 138 13 144 -3z m567 -308 c0 6
5 12 10 12 15 0 12 -36 -4 -49 -15 -12 -26 4 -26 37 0 15 2 15 10 2 6 -10 10
-11 10 -2z m350 -22 c0 -3 -4 -8 -10 -11 -5 -3 -10 -1 -10 4 0 6 5 11 10 11 6
0 10 -2 10 -4z m-2015 -26 c3 -5 1 -10 -4 -10 -6 0 -11 5 -11 10 0 6 2 10 4
10 3 0 8 -4 11 -10z m2220 -30 c4 -6 11 -8 16 -5 5 4 9 2 9 -4 0 -15 -23 -26
-28 -13 -2 7 -8 10 -13 6 -5 -3 -9 2 -9 10 0 18 16 21 25 6z m-785 -10 c8 -5
12 -11 10 -13 -68 -54 -112 -64 -173 -37 -61 27 -66 38 -14 33 23 -2 62 2 87
10 55 18 71 19 90 7z m92 -24 c9 -13 -10 -48 -22 -41 -5 3 -13 -3 -19 -12 -9
-16 -10 -16 -11 4 0 20 -4 22 -32 16 l-31 -6 38 36 c39 37 52 37 77 3z m533
-36 c-3 -5 -11 -10 -16 -10 -6 0 -7 5 -4 10 3 6 11 10 16 10 6 0 7 -4 4 -10z
m-1828 -36 c-3 -3 -12 -4 -19 -1 -8 3 -5 6 6 6 11 1 17 -2 13 -5z m1543 -156
c0 -16 -3 -19 -11 -11 -6 6 -8 16 -5 22 11 17 16 13 16 -11z m-214 -85 c-10
-10 -19 5 -10 18 6 11 8 11 12 0 2 -7 1 -15 -2 -18z m-435 -25 c5 -13 16 -34
24 -48 13 -23 13 -26 -8 -42 -21 -16 -23 -16 -64 30 -47 51 -52 68 -25 75 41
11 63 6 73 -15z m-220 -138 c14 0 11 -44 -6 -66 -14 -19 -15 -18 -35 6 l-21
25 6 -32 c6 -28 4 -31 -14 -26 -12 3 -19 9 -16 13 3 5 0 12 -7 16 -20 12 -52
12 -60 0 -5 -8 -10 -8 -18 0 -7 7 -3 17 14 33 20 18 28 21 44 12 29 -16 33
-14 27 12 -7 27 8 43 45 49 20 2 26 -2 28 -19 2 -13 8 -23 13 -23z m49 -177
c0 -43 -26 -25 -27 20 -2 39 -1 40 13 23 8 -11 14 -30 14 -43z m48 2 c-3 -3
-9 2 -12 12 -6 14 -5 15 5 6 7 -7 10 -15 7 -18z m-18 -11 c0 -8 -4 -12 -10 -9
-5 3 -10 10 -10 16 0 5 5 9 10 9 6 0 10 -7 10 -16z m-2 -31 c-10 -2 -18 -11
-18 -20 0 -11 -6 -14 -22 -9 -13 3 -26 6 -30 6 -5 0 -8 5 -8 11 0 6 6 9 13 6
8 -3 20 -1 28 4 8 5 23 8 34 8 17 -1 17 -2 3 -6z m-611 -32 c-4 -19 -2 -31 6
-34 8 -2 8 -8 -3 -18 -20 -19 -54 -24 -47 -7 2 7 10 12 16 11 6 -2 11 11 11
30 0 31 6 47 18 47 2 0 2 -13 -1 -29z m-117 -155 c0 -12 -3 -26 -6 -29 -13
-13 -21 3 -16 32 5 35 22 32 22 -3z m-50 14 c0 -5 -5 -10 -11 -10 -5 0 -7 5
-4 10 3 6 8 10 11 10 2 0 4 -4 4 -10z m-41 -81 c-19 -12 -24 -2 -8 17 9 11 14
13 17 4 3 -7 -2 -16 -9 -21z m31 -18 c0 -6 -4 -13 -10 -16 -5 -3 -10 1 -10 9
0 9 5 16 10 16 6 0 10 -4 10 -9z m260 -6 c-7 -9 -15 -13 -19 -10 -3 3 1 10 9
15 21 14 24 12 10 -5z m-290 -37 c0 -9 -4 -20 -10 -23 -6 -4 -10 9 -10 32 0
28 3 34 10 23 5 -8 10 -23 10 -32z m460 8 c0 -7 -9 -21 -20 -31 -25 -22 -26
-62 -2 -84 20 -19 48 -66 34 -57 -5 3 -15 -8 -22 -25 -9 -21 -18 -29 -30 -26
-12 3 -22 -4 -30 -21 -8 -19 -13 -23 -20 -13 -4 8 -13 10 -20 6 -9 -6 -9 -3
-1 13 6 11 11 30 11 41 0 12 5 21 10 21 6 0 10 -8 10 -17 0 -14 3 -13 16 6 15
21 18 21 26 7 5 -9 6 -21 3 -26 -3 -6 -4 -10 0 -10 10 0 25 49 19 65 -5 11
-10 13 -19 5 -10 -9 -14 1 -17 47 -3 46 0 62 14 79 10 11 18 26 18 33 0 7 5 9
10 6 6 -3 10 -12 10 -19z m140 9 c0 -8 -4 -15 -10 -15 -5 0 -10 7 -10 15 0 8
5 15 10 15 6 0 10 -7 10 -15z m-480 -16 c0 -11 -4 -18 -9 -14 -5 3 -11 -5 -13
-17 -2 -12 -10 -24 -18 -26 -12 -4 -13 -2 -4 9 6 8 14 26 18 42 7 32 26 36 26
6z m253 -44 c-25 -19 -28 -11 -6 18 13 19 19 21 21 10 2 -8 -5 -21 -15 -28z
m-193 14 c12 -21 7 -49 -7 -49 -8 0 -33 47 -33 62 0 17 30 7 40 -13z m333 5
c-3 -8 -12 -13 -19 -10 -18 7 -30 -34 -13 -45 9 -5 10 -9 2 -9 -7 0 -9 -9 -6
-22 6 -21 4 -21 -20 5 -15 15 -27 31 -27 35 1 16 29 42 48 45 12 2 25 6 28 10
11 11 14 8 7 -9z m-183 -54 c0 -16 -6 -33 -14 -37 -7 -4 -16 -15 -20 -23 -7
-16 2 54 10 83 8 26 24 10 24 -23z m228 5 c-3 -13 -1 -22 3 -19 5 3 9 -1 9 -9
0 -8 7 -17 15 -21 20 -7 19 -36 -1 -36 -11 0 -14 -6 -9 -20 4 -11 2 -20 -4
-20 -6 0 -11 -11 -11 -25 0 -14 -4 -25 -9 -25 -6 0 -7 -15 -4 -33 6 -37 -17
-70 -42 -61 -17 7 -20 24 -4 24 5 0 7 5 4 10 -4 6 -1 9 6 8 8 -2 14 9 15 26 3
26 2 27 -11 10 -14 -18 -14 -17 -15 8 0 21 6 29 23 34 23 5 24 8 20 90 -2 58
0 84 8 84 7 0 9 -10 7 -25z m-448 -20 c0 -8 -2 -15 -4 -15 -2 0 -6 7 -10 15
-3 8 -1 15 4 15 6 0 10 -7 10 -15z m1960 -4 c0 -11 5 -23 10 -26 6 -3 10 -1
10 5 0 6 5 8 10 5 6 -3 10 -1 10 4 0 6 4 11 9 11 12 0 20 -49 10 -56 -16 -9
-10 -37 6 -30 9 3 15 0 15 -9 0 -8 -6 -15 -12 -15 -8 -1 -6 -6 5 -14 29 -22
20 -37 -13 -18 -16 9 -30 21 -30 25 0 5 5 5 10 2 17 -10 11 8 -11 35 -12 15
-19 19 -18 10 3 -29 -1 -40 -15 -40 -8 0 -18 9 -21 20 -7 23 -16 25 -33 8 -10
-10 -15 -10 -22 2 -8 12 -10 10 -10 -9 0 -18 -3 -21 -13 -12 -11 8 -4 22 37
66 56 59 66 65 66 36z m-1790 -27 c0 -12 -34 -50 -50 -56 -8 -2 -6 -14 4 -38
8 -19 15 -30 16 -23 0 6 9 14 19 18 11 3 23 15 26 26 4 10 11 17 16 14 18 -11
9 -36 -26 -70 -23 -24 -32 -41 -28 -52 4 -11 3 -14 -5 -9 -6 4 -20 1 -31 -6
-16 -10 -23 -10 -32 -1 -9 9 -7 17 12 33 13 12 18 18 10 14 -11 -5 -12 -1 -7
19 4 16 1 27 -7 30 -7 3 -5 6 6 6 14 1 16 6 11 29 -4 15 -12 30 -18 34 -11 8
5 12 31 9 8 -1 10 5 6 15 -8 22 27 51 39 31 4 -6 8 -17 8 -23z m519 -24 c1
-13 0 -13 -9 0 -5 8 -9 26 -9 40 l1 25 8 -25 c4 -14 8 -32 9 -40z m-639 -20
c0 -5 -2 -10 -4 -10 -3 0 -8 5 -11 10 -3 6 -1 10 4 10 6 0 11 -4 11 -10z
m-120 -26 c0 -8 -4 -12 -10 -9 -5 3 -10 10 -10 16 0 5 5 9 10 9 6 0 10 -7 10
-16z m605 -4 c3 -5 1 -10 -4 -10 -6 0 -11 5 -11 10 0 6 2 10 4 10 3 0 8 -4 11
-10z m-21 -44 c3 -13 15 -26 26 -29 11 -3 20 -10 20 -16 0 -6 -7 -8 -15 -5 -8
4 -17 -1 -21 -9 -11 -30 -30 -7 -28 33 1 22 -3 40 -7 40 -5 0 -9 7 -9 16 0 24
26 0 34 -30z m-522 -6 c3 -19 2 -39 -3 -44 -5 -6 -9 1 -9 17 0 17 -5 27 -15
27 -8 0 -15 9 -15 19 0 35 34 19 42 -19z m1828 36 c0 -3 -4 -8 -10 -11 -5 -3
-10 -1 -10 4 0 6 5 11 10 11 6 0 10 -2 10 -4z m-969 -31 c5 4 6 -1 2 -10 -5
-13 -7 -14 -14 -3 -5 7 -8 18 -8 23 0 6 3 4 6 -3 2 -6 9 -10 14 -7z m-296 -5
c3 -5 1 -10 -4 -10 -6 0 -11 5 -11 10 0 6 2 10 4 10 3 0 8 -4 11 -10z m1415
-10 c0 -5 -7 -10 -16 -10 -8 0 -12 5 -9 10 3 6 10 10 16 10 5 0 9 -4 9 -10z
m-1341 -29 c-3 -6 -10 -7 -18 -2 -7 5 -10 14 -6 21 9 14 29 -2 24 -19z m1221
-3 c0 -18 -2 -20 -9 -8 -6 8 -7 18 -5 22 9 14 14 9 14 -14z m-1583 -1 c-5 -15
-39 -16 -44 -2 -2 6 8 12 23 13 17 1 24 -2 21 -11z m468 -7 c-3 -5 -10 -10
-16 -10 -5 0 -9 5 -9 10 0 6 7 10 16 10 8 0 12 -4 9 -10z m-359 -65 c-2 -11
-1 -14 1 -7 7 19 31 14 38 -9 5 -16 9 -18 15 -9 4 7 15 10 25 7 15 -6 15 -9
-2 -31 -10 -13 -28 -26 -41 -29 -21 -4 -23 -2 -18 22 l6 26 -15 -25 c-8 -14
-14 -19 -15 -12 0 27 -19 10 -26 -23 -6 -35 -17 -44 -29 -25 -4 6 -1 18 6 26
9 12 9 20 -1 38 -14 26 -7 46 16 46 8 0 17 13 21 32 5 27 7 29 14 13 4 -11 6
-29 5 -40z m561 23 c-3 -8 -6 -5 -6 6 -1 11 2 17 5 13 3 -3 4 -12 1 -19z
m-877 -2 c0 -25 31 -27 50 -4 17 22 19 22 26 4 4 -11 2 -21 -6 -26 -16 -10 3
-22 23 -14 10 3 17 -1 20 -13 4 -15 5 -14 6 4 1 27 21 41 21 15 0 -21 32 -40
38 -23 2 7 9 5 18 -4 9 -8 12 -20 8 -26 -4 -7 -3 -9 4 -5 16 10 23 -8 16 -43
-8 -39 -24 -40 -24 -2 0 34 -15 49 -24 25 -5 -13 -9 -14 -21 -4 -9 7 -25 10
-42 6 -14 -4 -46 -1 -70 6 -34 10 -42 16 -37 30 4 12 1 18 -8 16 -8 -2 -14 10
-16 35 -2 21 1 37 7 37 6 0 11 -6 11 -14z m273 4 c-13 -5 -23 -15 -23 -21 0
-7 -3 -9 -6 -6 -10 10 16 37 35 36 11 0 9 -3 -6 -9z m395 -15 c-3 -3 -9 2 -12
12 -6 14 -5 15 5 6 7 -7 10 -15 7 -18z m269 -12 c-3 -10 -5 -4 -5 12 0 17 2
24 5 18 2 -7 2 -21 0 -30z m-470 -15 c-3 -7 -5 -2 -5 12 0 14 2 19 5 13 2 -7
2 -19 0 -25z m-884 -12 c-21 -28 -28 -26 -18 3 3 12 13 21 21 21 12 0 12 -4
-3 -24z m1125 12 c-6 -18 -25 -21 -25 -3 0 8 7 15 15 15 7 0 12 -5 10 -12z
m179 -3 c-5 -14 -29 -13 -34 2 -3 7 4 11 16 10 12 -1 20 -6 18 -12z m-1261
-26 c-4 -28 -26 -66 -26 -46 0 4 -9 3 -20 -3 -27 -14 -25 -2 5 43 31 45 48 48
41 6z m92 20 c-2 -6 -8 -10 -13 -10 -5 0 -11 4 -13 10 -2 6 4 11 13 11 9 0 15
-5 13 -11z m-168 -70 c0 -8 -3 -9 -14 0 -9 8 -21 8 -44 0 -36 -12 -69 -6 -38
7 11 4 28 16 39 27 19 19 19 19 38 -2 10 -11 19 -25 19 -32z m870 32 c0 -18
-27 -37 -38 -26 -5 4 26 45 35 45 1 0 3 -9 3 -19z m-1930 6 c0 -2 -10 -12 -21
-23 -22 -19 -22 -19 -10 4 10 18 31 31 31 19z m2195 -26 c-3 -6 -11 -9 -16 -5
-6 3 -13 -3 -16 -15 -5 -18 -23 -31 -23 -16 0 17 45 64 53 56 5 -5 6 -14 2
-20z m171 -8 c-7 -7 -26 7 -26 19 0 6 6 6 15 -2 9 -7 13 -15 11 -17z m-246
-20 c0 -13 -3 -13 -15 -3 -8 7 -15 19 -15 27 0 13 3 13 15 3 8 -7 15 -19 15
-27z m-99 -21 c10 -21 18 -30 18 -19 1 19 16 23 27 5 7 -10 -21 -38 -38 -38
-5 0 -11 14 -14 30 -4 17 -10 30 -15 30 -5 0 -9 10 -9 22 0 27 8 19 31 -30z
m39 33 c0 -8 -4 -15 -9 -15 -13 0 -22 16 -14 24 11 11 23 6 23 -9z m-958 -27
c-7 -7 -10 -5 -7 8 5 29 6 30 12 16 3 -8 1 -18 -5 -24z m450 -16 c-4 -11 -8
-8 -18 9 -7 13 -10 27 -7 32 8 13 31 -25 25 -41z m1645 16 c-3 -8 -6 -5 -6 6
-1 11 2 17 5 13 3 -3 4 -12 1 -19z m-2117 -1 c0 -5 -6 -7 -12 -5 -7 3 -18 -1
-25 -8 -15 -15 -17 -28 -3 -19 12 8 -6 -44 -25 -69 -21 -28 -31 -11 -11 19 9
14 13 25 8 25 -4 0 -15 -13 -25 -29 -16 -28 -14 -61 4 -61 5 0 9 -4 9 -10 0
-5 -7 -10 -15 -10 -9 0 -18 -12 -21 -28 -8 -38 -41 -41 -46 -4 -5 42 2 72 18
72 10 0 14 12 14 38 0 24 3 32 9 24 7 -11 9 -11 14 2 4 9 13 16 22 16 8 0 15
5 15 12 0 19 31 47 51 45 10 -1 19 -5 19 -10z m70 9 c0 -2 -7 -7 -16 -10 -8
-3 -12 -2 -9 4 6 10 25 14 25 6z m1420 0 c0 -3 -4 -8 -10 -11 -5 -3 -10 -1
-10 4 0 6 5 11 10 11 6 0 10 -2 10 -4z m1008 -46 c-2 -5 -9 -6 -16 -1 -7 4
-10 15 -6 25 6 17 8 17 16 2 5 -9 8 -21 6 -26z m-2673 2 c-8 -8 -25 10 -19 20
4 6 9 5 15 -3 4 -7 6 -15 4 -17z m1412 6 c-3 -8 -6 -5 -6 6 -1 11 2 17 5 13 3
-3 4 -12 1 -19z m-692 -8 c3 -5 -1 -10 -9 -10 -8 0 -18 5 -21 10 -3 6 1 10 9
10 8 0 18 -4 21 -10z m175 -11 c0 -5 -7 -9 -15 -9 -15 0 -20 12 -9 23 8 8 24
-1 24 -14z m1800 -28 c0 -4 -7 -8 -15 -8 -16 0 -20 9 -9 20 8 8 24 -1 24 -12z
m-1864 -43 c-23 -50 -25 -105 -4 -92 8 5 9 2 5 -10 -4 -10 -7 -21 -7 -26 0 -5
-8 -11 -17 -14 -10 -3 -23 -17 -30 -31 -12 -26 -5 -33 15 -13 6 6 15 9 19 5 4
-4 1 -13 -5 -19 -7 -7 -13 -23 -13 -38 -1 -16 -3 -19 -6 -7 -9 35 -33 10 -33
-35 0 -21 0 -21 22 -2 20 18 21 18 15 1 -4 -11 -10 -31 -13 -45 -4 -21 -3 -24
5 -12 10 13 12 13 20 0 8 -11 12 -9 20 13 6 16 15 25 21 22 5 -3 10 1 10 9 0
9 5 16 10 16 6 0 10 -17 10 -37 0 -30 3 -35 11 -23 9 13 10 13 6 0 -2 -8 -10
-15 -18 -15 -22 0 -38 -28 -32 -57 6 -28 -10 -40 -20 -15 -3 6 -3 -3 0 -20 3
-21 1 -33 -5 -33 -6 0 -14 -17 -18 -37 -4 -21 -9 -32 -11 -26 -5 13 -56 -17
-79 -46 -6 -8 -16 -11 -22 -7 -6 4 -19 -12 -32 -41 -15 -35 -23 -44 -29 -34
-7 11 -13 6 -25 -17 -13 -24 -22 -31 -39 -28 -12 3 -32 5 -44 5 -17 1 -23 7
-22 24 0 12 3 16 6 10 9 -24 20 -13 15 15 -4 32 11 48 48 54 18 2 27 11 31 33
4 17 7 26 8 20 1 -5 8 -1 17 10 8 11 18 20 22 20 15 1 52 26 52 35 0 6 -8 11
-17 11 -17 1 -17 2 0 6 9 2 17 8 17 13 0 5 9 14 19 19 25 14 36 -12 15 -34 -9
-9 -13 -22 -10 -30 7 -20 42 -19 50 1 9 24 7 46 -4 39 -10 -6 -25 38 -22 69 1
17 0 17 -17 2 -10 -9 -21 -13 -24 -9 -4 3 -7 1 -7 -5 0 -7 -10 -12 -22 -12
-20 0 -19 2 10 26 35 29 44 61 15 49 -10 -4 -23 -8 -29 -9 -7 -1 -19 -8 -28
-15 -13 -11 -16 -11 -16 0 0 11 -2 11 -10 -1 -13 -20 -13 -33 0 -25 6 3 10 1
10 -5 0 -7 -7 -10 -15 -6 -8 3 -21 -1 -29 -9 -8 -8 -20 -15 -26 -15 -7 0 -10
-7 -6 -15 7 -19 -14 -66 -25 -59 -5 3 -9 -4 -9 -15 0 -11 -4 -22 -9 -25 -14
-9 -21 -79 -9 -93 6 -7 8 -17 4 -20 -4 -4 -11 -2 -15 6 -12 19 -20 -33 -9 -53
12 -22 2 -35 -22 -29 -20 5 -23 30 -3 26 5 -1 8 16 7 38 -1 21 2 39 7 39 5 0
9 14 9 30 0 18 -5 30 -13 30 -17 0 -21 59 -5 77 8 10 4 13 -16 13 -14 0 -26 5
-26 11 0 6 6 9 13 6 7 -3 21 1 31 8 10 8 24 11 32 8 8 -3 14 1 14 11 0 18 20
57 35 68 16 12 23 9 28 -9 2 -10 7 8 11 39 7 51 13 61 59 103 38 35 48 48 39
57 -9 9 -12 9 -13 -2 -1 -8 -5 8 -9 35 -5 36 -3 52 6 58 7 4 20 14 29 23 13
14 15 13 15 -5 0 -12 -3 -21 -7 -21 -6 0 -15 -48 -9 -51 0 0 19 -2 41 -5 36
-4 41 -2 41 16 0 14 -7 20 -23 20 -14 0 -23 6 -23 15 0 8 7 15 15 15 8 0 15
-5 15 -12 0 -9 4 -8 14 2 12 12 13 23 3 58 -9 35 -9 45 2 52 8 4 19 6 26 4 6
-3 18 3 26 12 20 24 23 1 5 -38z m74 20 c0 -5 -7 -8 -15 -8 -8 0 -15 -5 -15
-11 0 -8 -4 -8 -15 1 -13 10 -12 15 8 30 21 17 36 12 37 -12z m710 17 c0 -8 6
-15 13 -15 8 0 7 -4 -3 -10 -23 -15 -30 -12 -30 15 0 14 5 25 10 25 6 0 10 -7
10 -15z m-935 -4 c3 -5 1 -12 -5 -16 -5 -3 -10 1 -10 9 0 18 6 21 15 7z m655
-43 c0 -18 -2 -20 -9 -8 -6 8 -7 18 -5 22 9 14 14 9 14 -14z m230 12 c0 -5 -4
-10 -10 -10 -5 0 -10 5 -10 10 0 6 5 10 10 10 6 0 10 -4 10 -10z m1140 -5 c0
-8 -4 -15 -10 -15 -5 0 -10 -6 -10 -12 -1 -7 -7 -26 -14 -43 l-13 -30 0 47 c0
26 4 45 9 42 4 -3 8 2 8 10 0 9 7 16 15 16 8 0 15 -7 15 -15z m-1710 -9 c0
-10 7 -12 22 -8 19 5 20 4 7 -10 -16 -18 -24 -15 -39 13 -7 13 -7 19 0 19 5 0
10 -6 10 -14z m290 0 c0 -3 -4 -8 -10 -11 -5 -3 -10 -1 -10 4 0 6 5 11 10 11
6 0 10 -2 10 -4z m420 -16 c0 -5 -4 -10 -10 -10 -5 0 -10 5 -10 10 0 6 5 10
10 10 6 0 10 -4 10 -10z m297 -12 c-3 -8 -6 -5 -6 6 -1 11 2 17 5 13 3 -3 4
-12 1 -19z m641 10 c-6 -18 -28 -21 -28 -4 0 9 7 16 16 16 9 0 14 -5 12 -12z
m-2689 -41 c1 -5 -3 -5 -9 -2 -5 3 -10 0 -10 -7 0 -8 -5 -6 -11 5 -8 13 -7 22
2 33 12 14 14 14 20 -3 4 -10 8 -22 8 -26z m1343 -17 c-3 -3 -7 1 -9 8 -4 9
-8 10 -18 2 -11 -9 -12 -6 -8 12 9 36 27 41 34 10 3 -15 3 -29 1 -32z m1615
28 c-3 -7 -5 -2 -5 12 0 14 2 19 5 13 2 -7 2 -19 0 -25z m-1324 15 c-7 -2 -13
-14 -13 -26 0 -14 -3 -18 -10 -11 -15 15 -2 44 19 43 10 0 11 -2 4 -6z m32 -3
c3 -5 1 -10 -4 -10 -6 0 -11 5 -11 10 0 6 2 10 4 10 3 0 8 -4 11 -10z m985 1
c0 -6 -4 -13 -10 -16 -5 -3 -10 -17 -10 -31 0 -26 -9 -31 -27 -13 -9 9 -6 19
10 40 21 29 37 37 37 20z m109 -43 c-5 -10 -14 -18 -19 -18 -15 0 -12 48 3 53
18 6 27 -14 16 -35z m-1820 25 c0 -5 -4 -17 -9 -28 -8 -18 -9 -17 -9 8 -1 15
4 27 9 27 6 0 10 -3 9 -7z m590 -23 c4 0 8 -13 8 -30 0 -17 -6 -30 -12 -30 -8
0 -12 17 -12 48 0 26 2 39 4 30 2 -10 8 -18 12 -18z m-1149 4 c0 -8 4 -13 8
-10 5 3 15 -4 22 -15 8 -11 26 -19 42 -19 15 0 30 -4 33 -10 4 -6 -6 -10 -24
-10 -24 0 -29 -3 -24 -17 4 -11 3 -14 -5 -9 -7 4 -12 3 -12 -2 0 -6 7 -12 15
-16 8 -3 15 -12 15 -20 0 -12 -7 -14 -30 -9 -22 4 -30 2 -31 -8 0 -8 -4 -5 -8
6 -5 11 -5 25 -1 30 16 23 18 54 2 60 -8 3 -19 0 -23 -6 -15 -25 -27 1 -16 36
10 35 37 49 37 19z m860 -5 c0 -5 -4 -9 -10 -9 -5 0 -10 7 -10 16 0 8 5 12 10
9 6 -3 10 -10 10 -16z m887 15 c-3 -3 -12 -4 -19 -1 -8 3 -5 6 6 6 11 1 17 -2
13 -5z m53 -14 c0 -5 -4 -10 -10 -10 -5 0 -10 5 -10 10 0 6 5 10 10 10 6 0 10
-4 10 -10z m-1910 -18 c0 -18 -18 -42 -31 -42 -17 0 -18 34 -2 46 24 18 33 17
33 -4z m2408 -13 c-3 -8 -7 -3 -11 10 -4 17 -3 21 5 13 5 -5 8 -16 6 -23z
m-1908 -5 c0 -8 -4 -14 -10 -14 -5 0 -10 9 -10 21 0 11 5 17 10 14 6 -3 10
-13 10 -21z m1597 4 c-3 -8 -6 -5 -6 6 -1 11 2 17 5 13 3 -3 4 -12 1 -19z
m288 12 c3 -5 1 -10 -4 -10 -6 0 -11 5 -11 10 0 6 2 10 4 10 3 0 8 -4 11 -10z
m-2065 -21 c0 -5 -6 -9 -14 -9 -24 0 -27 -16 -6 -40 13 -15 20 -18 20 -9 0 18
79 44 93 30 16 -16 -2 -32 -23 -21 -15 8 -21 6 -29 -7 -24 -42 -26 -43 -58
-34 -35 10 -61 -7 -47 -30 5 -8 9 -7 16 5 12 21 32 21 24 0 -4 -9 -1 -22 4
-30 8 -9 7 -20 -6 -39 -18 -28 -29 -27 -20 2 8 26 4 37 -16 38 -10 1 -19 -5
-20 -14 0 -9 -2 -20 -3 -26 -2 -5 -3 -14 -4 -19 0 -5 -11 -1 -22 10 -21 19
-22 19 -15 -3 8 -27 1 -29 -20 -8 -9 8 -24 15 -34 15 -33 0 -31 44 2 45 3 0
20 10 36 22 23 17 28 27 25 47 -5 24 3 32 30 27 5 -1 6 7 2 18 -5 16 -2 18 14
14 12 -3 26 3 37 16 17 19 34 20 34 0z m573 -3 c7 2 13 -4 14 -15 2 -21 -28
-23 -35 -3 -2 7 -8 10 -13 6 -13 -8 -11 10 4 25 10 10 13 9 15 -3 2 -8 9 -13
15 -10z m1627 -4 c0 -15 -2 -15 -10 -2 -13 20 -13 33 0 25 6 -3 10 -14 10 -23z
m-2833 -3 c11 17 18 19 28 11 8 -7 19 -9 24 -5 14 8 1 -26 -16 -43 -7 -7 -17
-10 -23 -7 -13 8 -40 -18 -40 -39 0 -8 -5 -18 -11 -21 -15 -10 0 -67 23 -87
11 -9 17 -22 13 -29 -6 -8 -10 -8 -16 2 -7 11 -9 11 -9 1 0 -7 -5 -10 -11 -6
-6 3 -9 15 -6 25 4 13 0 19 -13 19 -12 0 -19 9 -22 30 -3 17 0 30 5 30 5 0 7
9 4 20 -3 11 -1 18 4 14 5 -3 9 1 9 9 0 8 7 17 15 21 8 3 15 11 14 18 0 10 -2
10 -6 0 -4 -10 -8 -10 -19 -1 -13 11 -12 15 8 34 22 21 23 21 26 2 4 -18 4
-18 19 2z m2640 -11 c-3 -8 -6 -5 -6 6 -1 11 2 17 5 13 3 -3 4 -12 1 -19z
m-1347 2 c0 -5 -4 -10 -10 -10 -5 0 -10 5 -10 10 0 6 5 10 10 10 6 0 10 -4 10
-10z m-1057 -6 c8 -8 -16 -33 -25 -27 -5 2 -8 -7 -8 -20 0 -20 -22 -57 -69
-113 -6 -7 -7 -14 -4 -17 3 -3 7 -27 8 -52 3 -39 1 -46 -12 -41 -10 4 -13 2
-10 -8 3 -8 -1 -20 -9 -26 -11 -10 -14 -10 -14 1 0 9 -6 7 -19 -6 -22 -23 -18
-75 5 -75 25 0 28 -47 5 -71 -25 -27 -27 -41 -6 -33 9 4 15 0 15 -9 0 -8 7
-17 15 -21 8 -3 15 -10 15 -17 0 -6 -6 -9 -14 -6 -8 3 -17 0 -19 -7 -3 -7 -22
-16 -42 -19 -28 -5 -41 -1 -56 14 -12 12 -29 19 -40 16 -13 -4 -19 0 -20 11 0
14 -2 14 -6 2 -8 -20 -24 -30 -50 -30 -26 0 -30 22 -8 40 11 9 13 16 5 24 -5
5 -10 29 -10 53 0 36 3 43 19 43 11 0 22 6 24 13 3 7 6 4 6 -6 1 -10 7 -17 14
-14 13 5 14 19 3 55 -6 16 -3 22 8 22 12 0 14 7 10 29 -6 26 -3 29 33 36 21 5
42 7 47 6 13 -3 56 28 56 40 0 6 6 17 14 25 8 7 12 23 9 34 -3 11 -2 36 1 55
5 26 12 35 26 35 13 0 20 7 20 19 0 27 66 62 83 45z m143 -18 c18 -14 18 -15
0 -22 -11 -4 -21 -2 -27 7 -19 31 -5 38 27 15z m2145 -9 c-10 -9 -11 -8 -5 6
3 10 9 15 12 12 3 -3 0 -11 -7 -18z m229 -25 c14 -53 12 -60 -10 -32 -20 25
-28 86 -10 75 5 -3 14 -22 20 -43z m-2430 28 c0 -5 -4 -10 -9 -10 -6 0 -13 5
-16 10 -3 6 1 10 9 10 9 0 16 -4 16 -10z m2520 3 c0 -5 -9 -19 -20 -33 -18
-23 -20 -24 -20 -4 0 20 17 44 32 44 4 0 8 -3 8 -7z m-1858 -63 c-8 -44 -8
-45 -13 -12 -3 17 -2 32 3 32 4 0 8 10 9 23 0 12 2 18 5 12 2 -5 0 -30 -4 -55z
m-1086 23 c-10 -10 -19 5 -10 18 6 11 8 11 12 0 2 -7 1 -15 -2 -18z m2671 5
c-3 -8 -6 -5 -6 6 -1 11 2 17 5 13 3 -3 4 -12 1 -19z m288 2 c3 -5 1 -10 -4
-10 -6 0 -11 5 -11 10 0 6 2 10 4 10 3 0 8 -4 11 -10z m-2523 -12 c4 -10 10
-10 30 -1 27 12 55 2 44 -16 -4 -6 -11 -9 -16 -6 -5 3 -18 1 -30 -5 -11 -5
-29 -14 -40 -20 -25 -12 -33 1 -20 34 10 28 26 34 32 14z m2268 -12 c0 -2 -7
-6 -15 -10 -8 -3 -15 -1 -15 4 0 6 7 10 15 10 8 0 15 -2 15 -4z m177 -18 c-3
-8 -6 -5 -6 6 -1 11 2 17 5 13 3 -3 4 -12 1 -19z m107 -58 c6 -20 5 -22 -4
-10 -9 13 -10 12 -7 -5 2 -11 9 -19 16 -17 9 2 11 -3 8 -13 -4 -8 -2 -15 3
-15 13 0 45 -110 41 -144 -1 -16 2 -26 7 -22 5 3 12 -9 16 -27 5 -23 2 -35 -9
-43 -8 -6 -15 -17 -16 -25 0 -8 -4 -5 -9 6 -5 11 -9 14 -9 6 -1 -11 -4 -11
-17 0 -9 7 -23 14 -32 16 -9 1 -21 8 -27 16 -14 19 -52 30 -60 17 -11 -17 -24
-11 -39 18 -10 19 -11 33 -5 45 16 28 32 20 27 -13 -5 -33 3 -38 21 -16 16 19
10 72 -6 69 -7 -2 -13 2 -13 8 0 7 -10 9 -24 7 -22 -4 -24 -1 -29 45 -8 61 0
77 23 47 11 -15 23 -21 34 -17 22 9 21 47 -1 47 -11 0 -14 3 -7 8 6 4 15 17
19 30 6 22 8 22 19 6 14 -18 36 -12 36 11 0 7 -7 16 -16 19 -8 3 -12 10 -9 16
8 14 60 -39 69 -70z m-3030 54 c9 -23 7 -34 -5 -34 -6 0 -9 6 -6 14 3 7 0 19
-6 25 -8 8 -8 11 0 11 6 0 14 -7 17 -16z m2796 1 c0 -8 -4 -15 -10 -15 -5 0
-10 7 -10 15 0 8 5 15 10 15 6 0 10 -7 10 -15z m57 -32 c-11 -10 -26 8 -20 23
5 15 7 14 15 -1 6 -9 7 -19 5 -22z m-437 7 c0 -5 -5 -10 -11 -10 -5 0 -7 5 -4
10 3 6 8 10 11 10 2 0 4 -4 4 -10z m-683 -22 c-3 -8 -6 -5 -6 6 -1 11 2 17 5
13 3 -3 4 -12 1 -19z m1157 -4 c3 -8 2 -12 -4 -9 -6 3 -10 10 -10 16 0 14 7
11 14 -7z m-2654 -2 c0 -13 -12 -22 -22 -16 -10 6 -1 24 13 24 5 0 9 -4 9 -8z
m330 -27 c0 -8 9 -19 20 -25 19 -10 29 -50 12 -50 -12 0 -9 -63 3 -72 11 -8
-22 -37 -42 -38 -18 0 -16 10 5 26 16 12 16 13 0 14 -16 0 -38 -51 -38 -88 0
-8 -6 -12 -12 -9 -7 2 -12 12 -12 21 1 9 -4 16 -11 16 -7 0 -15 7 -19 15 -3 8
-1 15 4 15 6 0 28 13 50 29 l39 28 -23 22 c-12 12 -26 18 -31 14 -4 -5 -2 2 4
15 7 12 9 27 6 33 -9 13 23 61 35 54 6 -4 10 -13 10 -20z m817 3 c-3 -8 -6 -5
-6 6 -1 11 2 17 5 13 3 -3 4 -12 1 -19z m603 -25 c0 -18 -49 -17 -56 2 -4 8
-1 22 6 30 11 14 15 14 31 -1 11 -10 19 -23 19 -31z m-1647 12 c1 -5 -6 -11
-15 -13 -11 -2 -18 3 -18 13 0 17 30 18 33 0z m274 -7 c-3 -8 -6 -5 -6 6 -1
11 2 17 5 13 3 -3 4 -12 1 -19z m-587 -2 c0 -7 -7 -19 -15 -26 -13 -11 -15 -8
-15 14 0 16 5 26 15 26 8 0 15 -6 15 -14z m456 -19 c12 4 15 2 12 -8 -2 -7
-18 -16 -35 -20 -24 -5 -30 -3 -26 7 3 8 -2 14 -11 14 -14 0 -15 4 -5 21 l11
21 19 -21 c12 -12 26 -18 35 -14z m2331 7 c4 -12 8 -13 14 -3 4 7 7 -14 6 -47
-2 -60 -18 -94 -45 -94 -10 0 -12 7 -7 23 18 56 17 78 -1 91 -15 12 -16 16 -5
30 17 20 30 20 38 0z m718 6 c3 -5 1 -10 -4 -10 -6 0 -11 5 -11 10 0 6 2 10 4
10 3 0 8 -4 11 -10z m-2851 -49 c-5 -29 -11 -41 -20 -37 -7 3 -16 1 -19 -4 -7
-12 -35 -13 -35 -2 0 11 71 94 77 89 2 -2 1 -23 -3 -46z m846 19 c0 -5 -4 -10
-10 -10 -5 0 -10 5 -10 10 0 6 5 10 10 10 6 0 10 -4 10 -10z m-1136 -21 c-3
-5 -10 -7 -15 -3 -5 3 -7 10 -3 15 3 5 10 7 15 3 5 -3 7 -10 3 -15z m2056 7
c0 -3 -4 -8 -10 -11 -5 -3 -10 -1 -10 4 0 6 5 11 10 11 6 0 10 -2 10 -4z
m-1070 -15 c0 -6 -4 -13 -10 -16 -5 -3 -10 1 -10 9 0 9 5 16 10 16 6 0 10 -4
10 -9z m1163 -10 c3 -14 1 -18 -9 -14 -8 3 -14 11 -14 19 0 21 17 17 23 -5z
m-2087 -8 c0 -11 6 -17 17 -17 23 2 22 -18 -3 -34 -18 -11 -20 -10 -21 10 -1
17 -2 19 -6 6 -5 -19 -53 -26 -53 -9 0 7 58 60 66 61 1 0 1 -8 0 -17z m1300 8
c11 9 14 7 14 -14 0 -14 3 -27 8 -30 4 -2 1 -2 -6 0 -9 2 -12 -5 -10 -17 2
-12 6 -19 9 -18 4 2 16 -6 28 -16 19 -17 21 -17 21 -3 0 10 -6 17 -12 18 -7 0
-4 4 7 8 12 5 23 4 27 -3 4 -6 20 -10 36 -8 30 3 69 -28 58 -47 -7 -11 -98 -8
-136 4 -18 6 -19 4 -10 -20 5 -14 10 -33 10 -42 0 -14 -3 -14 -20 2 -11 10
-18 20 -16 22 2 2 -2 24 -9 48 -8 24 -11 52 -8 63 3 15 -2 21 -21 26 -14 3
-26 11 -26 17 0 6 4 8 9 4 5 -3 13 0 17 7 6 9 9 9 12 0 3 -10 7 -10 18 -1z
m987 -12 c5 -17 -8 -20 -30 -6 -19 12 -16 23 6 23 11 0 22 -8 24 -17z m-2213
-4 c0 -8 -7 -15 -15 -15 -8 0 -15 7 -15 15 0 8 7 15 15 15 8 0 15 -7 15 -15z
m-213 -57 c-3 -10 1 -21 8 -26 8 -5 10 -14 4 -29 -12 -33 -26 -28 -33 12 -6
31 -26 50 -26 25 0 -5 -4 -10 -10 -10 -5 0 -10 7 -10 15 0 8 4 15 9 15 5 0 12
12 15 26 7 26 7 26 27 8 11 -10 18 -26 16 -36z m2303 31 c0 -6 -4 -7 -10 -4
-5 3 -10 11 -10 16 0 6 5 7 10 4 6 -3 10 -11 10 -16z m-1090 2 c0 -12 -20 -25
-27 -18 -7 7 6 27 18 27 5 0 9 -4 9 -9z m104 -22 c-3 -5 -10 -7 -15 -3 -5 3
-7 10 -3 15 3 5 10 7 15 3 5 -3 7 -10 3 -15z m73 15 c-3 -4 1 -20 9 -36 11
-22 13 -33 5 -41 -8 -8 -11 -7 -11 2 0 7 -5 9 -11 6 -6 -4 -13 2 -16 14 -3 12
-12 21 -19 21 -19 0 -18 10 4 26 17 13 51 20 39 8z m349 -8 c15 -12 16 -17 7
-27 -10 -10 -15 -9 -28 1 -16 13 -21 40 -7 40 5 0 17 -6 28 -14z m511 -18 c-3
-8 -6 -5 -6 6 -1 11 2 17 5 13 3 -3 4 -12 1 -19z m-2161 -89 c-31 -36 -42 -23
-16 18 12 21 15 34 8 41 -6 6 -7 16 -3 22 5 8 12 1 21 -20 13 -30 12 -34 -10
-61z m1121 74 c-16 -59 -16 -71 0 -84 15 -12 16 -12 11 3 -4 9 1 23 13 34 24
21 26 0 4 -30 -8 -11 -15 -36 -16 -55 0 -20 -3 -31 -5 -24 -3 7 -12 9 -19 7
-11 -5 -13 2 -8 31 5 29 2 40 -10 47 -24 13 -23 75 1 81 31 8 33 7 29 -10z
m1333 3 c0 -8 -6 -16 -12 -19 -10 -3 -10 -9 -1 -25 10 -17 9 -21 -5 -28 -9 -4
-20 -6 -24 -6 -5 1 -8 -3 -8 -9 0 -5 -4 -8 -8 -5 -5 3 -9 -1 -10 -9 -1 -8 -3
-22 -4 -30 -1 -8 -6 -15 -11 -15 -5 0 -6 12 -3 26 4 16 1 35 -8 50 -9 12 -12
25 -7 29 5 3 11 -3 14 -12 3 -15 6 -14 15 7 6 14 11 19 11 13 1 -20 21 -15 21
5 0 19 18 42 32 42 4 0 8 -6 8 -14z m-2220 -10 c0 -8 7 -17 16 -20 8 -3 12
-11 8 -17 -3 -6 -1 -15 6 -19 17 -10 -22 -76 -50 -85 -10 -3 -21 -12 -24 -20
-4 -11 0 -12 18 -5 31 11 40 1 20 -21 -10 -11 -12 -19 -5 -24 18 -10 12 -27
-6 -21 -14 4 -18 0 -20 -20 -2 -34 -23 -74 -39 -74 -7 0 -18 -8 -23 -17 -6
-10 -11 -14 -11 -9 0 5 -9 1 -20 -9 -11 -10 -20 -16 -21 -14 0 2 -2 13 -4 23
-2 11 1 29 8 40 6 12 11 28 12 36 0 11 10 14 43 12 25 -2 42 1 42 7 0 6 -5 11
-11 11 -7 0 -18 8 -25 18 -8 10 -13 12 -14 5 0 -7 -8 -13 -17 -13 -15 0 -14 2
3 19 19 19 19 19 36 -3 20 -24 24 -15 6 14 -10 16 -10 24 0 40 7 11 9 20 5 19
-5 -1 -11 0 -15 1 -13 4 -27 7 -38 9 -5 0 -10 10 -10 20 0 16 5 19 27 15 15
-3 30 -9 33 -13 9 -14 48 6 55 28 3 12 11 21 16 21 5 0 9 5 9 11 0 8 -4 8 -14
0 -11 -9 -16 -9 -22 0 -5 9 -11 7 -20 -6 -12 -16 -13 -15 -11 11 1 19 -2 28
-10 27 -28 -6 -11 17 20 26 45 13 47 13 47 -3z m1033 -78 c-1 -63 0 -67 18
-58 14 8 21 6 29 -11 7 -11 9 -32 6 -45 -4 -13 -2 -33 4 -44 10 -18 13 -19 25
-6 8 8 15 19 15 25 0 20 17 11 29 -16 10 -21 14 -24 21 -13 5 9 5 19 -2 27 -5
7 -8 20 -4 28 7 19 35 19 42 0 4 -8 11 -12 16 -9 5 4 21 1 34 -6 20 -11 27
-11 41 2 23 19 53 30 53 19 0 -5 -7 -11 -15 -15 -8 -3 -15 -12 -15 -21 0 -8
-7 -15 -15 -15 -8 0 -15 -8 -15 -17 0 -15 -2 -16 -10 -3 -8 12 -10 11 -10 -7
0 -24 -19 -33 -21 -10 -1 6 -4 1 -8 -13 -4 -16 -15 -26 -31 -28 -21 -3 -22 -2
-11 12 14 17 8 81 -9 91 -6 4 -7 -6 -4 -25 5 -22 3 -30 -7 -30 -15 -1 -69 -44
-69 -57 -1 -20 -59 -71 -93 -83 -21 -6 -43 -20 -50 -31 -15 -24 -36 -24 -52
-2 -17 24 -8 43 21 43 30 0 40 26 39 95 -1 28 1 57 5 65 24 51 28 82 15 113
-9 20 -14 25 -15 14 0 -10 -5 -15 -10 -12 -7 4 -6 13 1 26 8 16 7 23 -7 33
-13 10 -14 15 -4 21 7 4 16 2 21 -6 6 -9 9 -10 9 -2 0 6 -4 15 -10 18 -20 12
-9 26 18 23 27 -3 27 -4 25 -70z m977 46 c0 -8 -7 -14 -15 -14 -17 0 -18 2 -9
24 7 18 24 12 24 -10z m-1226 -42 c-4 -15 -8 -30 -8 -34 -1 -3 -5 -10 -10 -15
-5 -5 -6 2 -3 17 4 14 7 41 7 60 1 30 2 32 11 17 6 -11 8 -30 3 -45z m826 48
c0 -5 -2 -10 -4 -10 -3 0 -8 5 -11 10 -3 6 -1 10 4 10 6 0 11 -4 11 -10z m631
-33 c-8 -8 -11 -3 -11 19 1 25 2 27 11 11 8 -14 8 -22 0 -30z m-862 6 c-11
-15 -11 -16 1 -5 8 6 25 12 39 12 l25 0 -24 -22 c-13 -12 -32 -23 -44 -25 -12
-1 -37 -5 -57 -9 -25 -4 -39 -2 -44 7 -6 9 -2 11 14 6 20 -5 22 -3 17 19 -6
21 -4 25 11 20 10 -3 29 1 43 9 30 16 38 12 19 -12z m-1529 -9 c6 -14 10 -29
10 -33 0 -14 -43 -21 -57 -10 -6 6 -17 8 -23 4 -18 -11 -10 18 12 42 28 30 46
29 58 -3z m-495 -5 c12 -19 -5 -23 -22 -6 -16 16 -16 17 -1 17 9 0 20 -5 23
-11z m3605 -16 c0 -13 -3 -13 -15 -3 -8 7 -12 16 -9 21 8 13 24 1 24 -18z
m-1711 8 c7 -5 10 -14 6 -20 -5 -9 -10 -9 -21 0 -26 22 -14 38 15 20z m231
-11 c0 -5 -7 -10 -15 -10 -8 0 -15 5 -15 10 0 6 7 10 15 10 8 0 15 -4 15 -10z
m857 -12 c-3 -8 -6 -5 -6 6 -1 11 2 17 5 13 3 -3 4 -12 1 -19z m-2647 8 c0
-11 -19 -15 -25 -6 -3 5 1 10 9 10 9 0 16 -2 16 -4z m1974 -8 c5 -10 7 -10 12
0 3 6 10 12 16 12 7 0 7 -4 1 -12 -6 -7 -13 -25 -17 -40 -4 -19 -13 -28 -26
-28 -23 0 -24 -8 -10 -44 5 -14 16 -26 25 -26 17 0 20 -11 6 -26 -10 -10 -23
-74 -15 -74 8 0 58 34 66 44 9 14 46 17 53 5 4 -6 0 -18 -9 -28 -21 -23 -20
-40 2 -64 9 -11 11 -17 4 -13 -10 6 -12 0 -7 -28 9 -43 -9 -49 -28 -9 -9 21
-9 27 1 31 6 2 12 10 12 18 0 10 -7 13 -25 8 -15 -4 -25 -2 -25 5 0 6 8 11 17
11 12 0 14 3 6 11 -14 14 -51 -20 -45 -42 2 -8 -3 -4 -13 9 -9 12 -23 22 -31
22 -8 0 -14 7 -14 16 0 8 5 12 10 9 6 -3 10 1 10 9 0 10 -6 13 -15 10 -8 -4
-15 -10 -15 -14 0 -4 -8 -7 -17 -6 -12 0 -19 -7 -21 -21 -2 -16 -17 -29 -49
-43 -54 -24 -63 -25 -63 -5 0 8 5 15 10 15 6 0 10 8 10 17 0 14 -4 13 -21 -6
-12 -13 -28 -20 -36 -17 -12 5 -14 1 -10 -15 5 -20 3 -21 -36 -15 -40 7 -57
19 -57 42 0 14 28 26 41 18 6 -3 16 0 24 6 8 7 24 9 37 5 13 -4 20 -4 16 0 -4
5 0 13 9 20 11 8 16 25 15 49 -2 48 22 44 26 -5 4 -39 19 -62 18 -27 -1 14 5
23 14 23 15 0 18 -23 8 -55 -3 -8 -3 -12 -1 -7 3 4 9 5 13 2 5 -3 14 5 21 17
7 13 19 28 28 35 15 10 14 14 -2 43 -11 17 -16 34 -13 37 3 3 -2 13 -11 21
-10 11 -12 17 -4 20 6 2 20 23 30 48 16 35 25 44 45 44 13 0 27 -6 30 -12z
m111 2 c3 -5 1 -10 -4 -10 -6 0 -11 5 -11 10 0 6 2 10 4 10 3 0 8 -4 11 -10z
m45 -35 c0 -26 -7 -29 -35 -19 -14 6 -14 8 2 25 25 25 33 23 33 -6z m215 -32
c-18 -33 -18 -33 -37 -13 -20 22 -15 45 8 36 8 -3 20 3 27 14 20 33 22 0 2
-37z m85 47 c0 -5 -5 -10 -11 -10 -5 0 -7 5 -4 10 3 6 8 10 11 10 2 0 4 -4 4
-10z m-382 -28 c2 -12 -1 -22 -7 -22 -6 0 -11 4 -11 9 0 5 -3 17 -7 27 -4 12
-2 15 8 12 8 -2 15 -14 17 -26z m-887 -4 c7 -13 12 -38 10 -56 -1 -17 3 -41 9
-52 9 -16 8 -22 -4 -26 -11 -4 -13 -14 -9 -36 4 -22 3 -29 -5 -24 -7 4 -12 31
-12 59 0 29 -5 71 -10 95 -14 59 -1 82 21 40z m559 -4 c0 -8 -4 -12 -10 -9 -5
3 -10 10 -10 16 0 5 5 9 10 9 6 0 10 -7 10 -16z m-283 -24 c-1 -22 -12 -26
-22 -10 -9 15 3 43 14 35 5 -3 9 -14 8 -25z m731 -6 c-4 -3 -12 5 -18 18 -12
22 -12 22 6 6 10 -10 15 -20 12 -24z m-1035 -57 c4 -41 2 -48 -12 -45 -11 2
-17 16 -19 47 -7 93 21 91 31 -2z m107 16 c0 -13 -9 -27 -21 -34 -19 -10 -20
-9 -13 13 4 12 7 36 6 51 -1 27 0 28 13 11 8 -11 15 -29 15 -41z m-693 34 c-4
-14 -47 -23 -47 -9 0 13 7 17 30 19 13 1 20 -3 17 -10z m1163 -18 c0 -5 -4 -9
-10 -9 -5 0 -10 7 -10 16 0 8 5 12 10 9 6 -3 10 -10 10 -16z m-1610 1 c8 -5
12 -12 8 -15 -10 -10 -49 5 -43 16 8 11 16 11 35 -1z m2120 -8 c0 -5 -7 -17
-15 -28 -14 -19 -14 -19 -15 2 0 11 3 24 7 27 9 10 23 9 23 -1z m57 -14 c-4
-13 0 -26 10 -33 14 -11 14 -12 0 -18 -22 -8 -47 51 -26 64 20 13 22 11 16
-13z m180 0 c-3 -8 -6 -5 -6 6 -1 11 2 17 5 13 3 -3 4 -12 1 -19z m-2424 -1
c4 3 7 -1 7 -11 0 -14 3 -15 21 -5 18 9 25 7 43 -10 l21 -22 -23 -6 c-18 -4
-20 -8 -10 -14 7 -5 22 -6 33 -2 17 5 18 3 8 -9 -9 -11 -10 -17 -1 -26 8 -8 8
-15 -1 -26 -8 -10 -9 -16 -1 -21 5 -3 9 -23 9 -43 -1 -20 -3 -29 -6 -19 -9 33
-63 10 -63 -27 0 -16 -7 -26 -22 -30 -32 -8 -61 -7 -76 3 -16 10 -23 60 -10
84 7 13 5 17 -12 17 -26 0 -25 12 5 48 14 17 25 39 25 50 0 11 6 22 13 25 9 3
9 8 -2 21 -13 15 -13 19 -1 26 8 5 19 5 26 0 6 -6 14 -7 17 -3z m457 8 c0 -19
-26 -55 -39 -53 -25 5 -24 32 1 44 26 13 38 16 38 9z m416 -12 c17 -23 17 -33
0 -33 -8 0 -17 7 -20 16 -14 36 -2 46 20 17z m964 10 c-1 -14 -27 -43 -39 -43
-6 0 -11 9 -11 21 0 15 5 19 15 15 8 -3 15 -1 15 4 0 6 5 10 10 10 6 0 10 -3
10 -7z m225 -3 c-3 -5 -11 -10 -16 -10 -6 0 -7 5 -4 10 3 6 11 10 16 10 6 0 7
-4 4 -10z m-427 -17 c-2 -9 -8 -18 -15 -20 -7 -3 -9 3 -6 16 6 25 26 28 21 4z
m-1265 -30 c-4 -11 -8 -11 -21 -1 -13 11 -14 11 -8 0 5 -8 1 -21 -10 -33 -23
-25 -31 -24 -36 5 -7 34 36 70 62 54 10 -7 16 -18 13 -25z m2037 -5 c0 -18 0
-42 1 -53 0 -15 2 -17 9 -6 7 12 11 12 24 2 17 -15 22 -36 6 -26 -5 3 -10 0
-10 -7 0 -8 -9 -14 -20 -15 -14 -1 -20 4 -20 18 0 12 -7 19 -18 19 -24 0 -47
47 -32 65 5 6 6 15 2 20 -4 4 3 5 16 2 12 -3 22 -1 22 4 0 5 4 9 9 9 5 0 10
-15 11 -32z m-558 -10 c-6 -6 -15 -8 -19 -4 -4 4 -1 11 7 16 19 12 27 3 12
-12z m684 -10 c-3 -18 -5 -37 -5 -41 -1 -5 -5 -6 -10 -3 -14 9 -1 76 15 76 2
0 2 -15 0 -32z m-2695 -1 c-13 -13 -26 -3 -16 12 3 6 11 8 17 5 6 -4 6 -10 -1
-17z m2322 -42 c-5 -18 -5 -18 12 -2 11 12 15 26 11 42 -4 14 -2 25 3 25 10 0
32 -59 36 -95 4 -30 3 -29 26 -54 17 -18 23 -20 30 -9 7 11 11 10 19 -2 37
-58 50 -64 50 -24 0 22 3 24 14 15 12 -10 17 -9 24 6 5 10 7 24 4 32 -3 8 0
11 7 7 6 -4 8 -18 5 -33 -8 -32 16 -28 31 5 11 25 25 29 25 7 0 -8 -5 -15 -11
-15 -7 0 -8 -11 -4 -29 4 -18 2 -32 -5 -36 -9 -5 -10 -1 -5 14 4 15 3 21 -7
19 -19 -4 -29 -37 -18 -58 6 -10 10 -26 10 -36 0 -13 -3 -14 -13 -5 -8 6 -17
8 -21 4 -4 -4 -9 3 -13 15 -3 12 -9 22 -13 22 -5 0 -11 8 -13 18 -3 11 -7 7
-12 -15 -4 -18 -12 -30 -17 -27 -5 3 -15 0 -23 -6 -8 -6 -19 -9 -25 -5 -6 4
-10 -5 -10 -23 0 -25 -3 -29 -20 -25 -26 7 -26 39 0 46 16 4 19 11 15 30 -4
14 -1 35 5 47 10 18 9 25 -3 37 -13 13 -18 11 -41 -20 -25 -33 -36 -74 -16
-62 15 10 12 -11 -4 -24 -11 -10 -16 -9 -24 5 -14 26 -31 8 -23 -24 6 -20 14
-27 32 -27 14 0 25 -7 27 -18 2 -9 9 -17 15 -17 8 0 8 -3 0 -11 -6 -6 -35 -13
-64 -15 -30 -2 -55 -8 -57 -13 -5 -14 -32 -2 -32 14 0 18 -32 28 -42 13 -5 -9
-8 -7 -8 8 0 28 10 36 28 21 12 -9 16 -9 19 1 3 8 10 5 22 -10 l18 -21 5 21
c4 12 2 22 -3 22 -5 0 -9 7 -9 16 0 20 19 8 30 -20 8 -20 9 -19 9 5 1 16 -6
29 -15 33 -14 5 -12 10 10 31 15 14 31 25 36 25 4 0 6 9 3 20 -3 11 -9 20 -14
20 -5 0 -9 5 -9 10 0 6 3 9 8 9 21 -4 27 4 27 39 0 32 -3 37 -21 35 -16 -2
-23 4 -26 22 -3 14 -1 23 6 22 12 -2 12 4 2 43 l-7 25 15 -25 c8 -14 12 -34 9
-45z m-1341 19 c-12 -8 -20 -20 -17 -25 3 -5 -3 -19 -15 -31 -15 -17 -23 -19
-32 -10 -8 8 -8 12 -1 12 6 0 13 13 16 29 4 18 14 32 27 36 11 3 20 11 20 18
0 8 4 7 12 -1 10 -10 7 -16 -10 -28z m112 25 c4 6 11 11 17 11 16 0 10 -26
-11 -45 -19 -17 -20 -17 -20 -1 0 9 -4 14 -10 11 -5 -3 -10 0 -10 8 0 20 12
29 21 16 5 -8 8 -8 13 0z m706 1 c0 -5 -2 -10 -4 -10 -3 0 -8 5 -11 10 -3 6
-1 10 4 10 6 0 11 -4 11 -10z m-1922 -18 c2 -7 -3 -12 -12 -12 -9 0 -16 7 -16
16 0 17 22 14 28 -4z m1502 -9 c0 -20 -34 -12 -38 9 -2 12 2 15 17 11 12 -3
21 -12 21 -20z m-63 -5 c-3 -8 -6 -5 -6 6 -1 11 2 17 5 13 3 -3 4 -12 1 -19z
m2143 -5 c0 -19 -3 -24 -10 -17 -6 6 -8 18 -4 27 9 24 14 21 14 -10z m-2320
-17 c-14 -14 -24 0 -16 21 6 15 8 15 16 3 6 -9 5 -19 0 -24z m122 -11 c2 -22
9 -31 28 -35 20 -5 25 -12 23 -34 -1 -15 -11 -35 -22 -45 -10 -9 -21 -28 -24
-41 -4 -24 -4 -24 -6 3 l-1 28 -24 -28 c-33 -38 -42 -24 -17 27 18 37 19 46 7
74 -7 17 -10 38 -5 46 4 8 10 24 14 34 8 25 23 10 27 -29z m2158 31 c0 -15
-24 -29 -33 -19 -7 6 14 32 26 33 4 0 7 -6 7 -14z m-2213 -18 c-3 -8 -6 -5 -6
6 -1 11 2 17 5 13 3 -3 4 -12 1 -19z m2333 -4 c0 -8 -4 -12 -10 -9 -5 3 -10
10 -10 16 0 5 5 9 10 9 6 0 10 -7 10 -16z m-1486 -10 c11 -28 7 -74 -7 -74 -7
0 -13 8 -14 18 -1 9 -5 29 -9 45 -5 20 -3 27 9 27 8 0 18 -7 21 -16z m-1670
-5 c4 6 12 9 17 6 5 -4 4 -12 -3 -19 -14 -15 -51 1 -41 17 3 5 9 4 13 -3 5 -9
9 -9 14 -1z m134 -19 c-12 -17 -28 -28 -36 -25 -7 2 -10 1 -7 -5 3 -5 -8 -16
-24 -24 -16 -9 -32 -25 -36 -36 -3 -11 -13 -20 -21 -20 -10 0 -14 -12 -14 -41
0 -34 3 -39 13 -30 8 6 17 7 21 3 4 -4 6 0 4 8 -2 9 10 21 29 30 18 8 33 23
33 33 0 11 8 17 21 17 15 0 19 -4 15 -16 -5 -14 -4 -15 9 -4 25 21 29 4 10
-47 -20 -54 -34 -75 -45 -68 -4 3 -19 -5 -34 -16 -25 -19 -26 -20 -26 -2 0 11
-5 24 -12 31 -16 16 -41 15 -35 0 2 -7 11 -12 21 -10 9 2 16 -4 16 -13 0 -9
-4 -14 -9 -11 -5 3 -14 -1 -21 -9 -16 -19 -31 -19 -24 0 3 8 -1 21 -9 30 -12
11 -17 12 -20 2 -3 -8 -9 -6 -20 8 -14 18 -13 21 9 40 13 11 24 27 24 35 0 34
64 130 86 130 7 0 22 9 35 20 13 10 34 19 47 20 l23 0 -23 -30z m2000 -15 c-2
-1 -13 -6 -25 -9 -28 -9 -31 10 -5 34 16 16 17 16 25 -3 4 -11 6 -21 5 -22z
m-2633 21 c10 -9 11 -16 3 -24 -16 -16 -36 -3 -31 19 6 23 10 23 28 5z m1233
-5 c3 -8 -1 -12 -9 -9 -7 2 -15 10 -17 17 -3 8 1 12 9 9 7 -2 15 -10 17 -17z
m-783 -21 c-10 -11 -22 -17 -28 -13 -6 4 -3 12 8 20 28 20 41 16 20 -7z m1377
14 c3 -3 -5 -17 -18 -31 -13 -14 -24 -32 -24 -39 0 -15 -16 -19 -24 -6 -3 5
-15 8 -28 6 -13 -1 -31 -3 -40 -3 -9 -1 -46 -26 -82 -56 -65 -55 -65 -56 -72
-31 -7 30 26 90 59 108 12 6 44 12 70 13 27 1 52 5 55 11 14 19 92 41 104 28z
m1768 2 c0 -3 -4 -8 -10 -11 -5 -3 -10 -1 -10 4 0 6 5 11 10 11 6 0 10 -2 10
-4z m-2530 -25 c0 -5 -7 -14 -15 -21 -12 -10 -15 -10 -15 2 0 8 3 18 7 21 9
10 23 9 23 -2z m1175 -1 c3 -5 1 -10 -4 -10 -6 0 -11 5 -11 10 0 6 2 10 4 10
3 0 8 -4 11 -10z m-2225 -15 c0 -8 -4 -15 -10 -15 -5 0 -7 7 -4 15 4 8 8 15
10 15 2 0 4 -7 4 -15z m2637 -7 c-3 -8 -6 -5 -6 6 -1 11 2 17 5 13 3 -3 4 -12
1 -19z m-1967 -9 c0 -11 -4 -18 -10 -14 -5 3 -7 12 -3 20 7 21 13 19 13 -6z
m530 11 c0 -5 -4 -10 -10 -10 -5 0 -10 5 -10 10 0 6 5 10 10 10 6 0 10 -4 10
-10z m78 -42 c-9 -18 -20 -26 -32 -24 -23 3 -38 37 -25 57 7 12 9 12 9 -1 0
-12 3 -11 17 3 14 14 20 15 30 4 11 -10 11 -18 1 -39z m-868 28 c0 -8 -4 -17
-9 -21 -12 -7 -24 12 -16 25 9 15 25 12 25 -4z m1447 -3 c-3 -20 -26 -63 -27
-49 0 5 -7 3 -15 -4 -12 -10 -15 -10 -15 3 0 8 7 20 15 27 8 7 15 19 15 26 0
8 7 14 15 14 9 0 14 -7 12 -17z m435 -24 c30 -31 40 -50 41 -75 1 -18 -2 -36
-6 -40 -8 -8 -67 15 -67 27 0 5 -6 6 -14 3 -8 -3 -18 1 -22 8 -6 9 -10 7 -14
-9 -5 -22 -5 -22 -17 2 -6 15 -7 22 -1 19 5 -4 5 4 -2 16 -9 16 -9 25 -1 33 6
6 11 7 11 2 0 -6 5 -3 10 5 9 13 12 13 23 -1 18 -24 57 -34 57 -15 0 9 -6 13
-14 10 -9 -4 -20 6 -31 25 -22 44 -1 40 47 -10z m-322 21 c0 -5 -4 -10 -10
-10 -5 0 -10 5 -10 10 0 6 5 10 10 10 6 0 10 -4 10 -10z m108 -27 c-16 -19
-36 -16 -49 8 -9 18 -8 20 9 15 11 -4 23 -2 27 5 6 8 10 8 16 -2 4 -8 3 -19
-3 -26z m302 21 c0 -8 -4 -12 -10 -9 -5 3 -10 10 -10 16 0 5 5 9 10 9 6 0 10
-7 10 -16z m-2211 -35 c1 -10 -28 -19 -33 -11 -2 4 1 18 6 32 10 24 11 24 18
5 5 -11 9 -23 9 -26z m861 33 c0 -4 -5 -13 -10 -18 -6 -6 -11 -38 -13 -72 -1
-44 -6 -62 -15 -62 -11 0 -12 14 -7 61 6 50 4 60 -7 54 -7 -5 -2 4 11 18 24
27 41 34 41 19z m420 1 c-1 -11 -26 -43 -33 -43 -4 0 -1 11 5 25 10 23 28 35
28 18z m710 -27 c0 -6 3 -22 5 -36 6 -25 6 -25 -5 -2 -10 23 -30 22 -30 -1 0
-18 -37 -19 -44 -1 -7 18 3 45 15 38 5 -3 9 1 9 9 0 10 8 13 25 9 14 -2 25 -9
25 -16z m239 -33 c-19 -22 -32 0 -18 31 13 27 13 27 21 6 5 -14 4 -28 -3 -37z
m-2044 20 c-4 -16 -8 -30 -10 -31 -8 -8 -25 10 -25 27 0 21 9 31 28 31 10 0
12 -7 7 -27z m325 -8 c0 -8 -4 -15 -10 -15 -5 0 -10 7 -10 15 0 8 5 15 10 15
6 0 10 -7 10 -15z m2915 5 c3 -5 1 -10 -4 -10 -6 0 -11 5 -11 10 0 6 2 10 4
10 3 0 8 -4 11 -10z m-2380 -33 c10 13 17 15 25 7 14 -14 -7 -54 -27 -54 -7 0
-13 -4 -13 -10 0 -5 -7 -10 -15 -10 -7 0 -19 -8 -25 -17 -11 -17 -11 -17 -6 0
7 22 -17 23 -35 1 -10 -13 -10 -20 0 -36 15 -24 8 -60 -24 -132 -30 -64 -31
-44 -4 48 16 54 19 74 10 88 -18 29 -13 53 17 70 15 9 31 16 37 16 9 -1 18 12
31 47 7 18 8 17 12 -8 3 -27 4 -28 17 -10z m523 -3 c-35 -35 -58 -38 -58 -8 0
8 13 17 30 21 17 3 30 9 30 14 0 5 8 9 17 9 13 0 9 -9 -19 -36z m-1332 4 c4
-6 -3 -20 -17 -31 -22 -17 -24 -18 -27 -3 -4 18 14 46 29 46 4 0 11 -5 15 -12z
m-246 -7 c0 -6 -4 -13 -10 -16 -5 -3 -10 1 -10 9 0 9 5 16 10 16 6 0 10 -4 10
-9z m809 -28 c0 -35 -1 -36 -10 -14 -5 14 -7 31 -5 38 10 24 16 13 15 -24z
m-769 -4 c0 -5 -7 -9 -15 -9 -15 0 -20 12 -9 23 8 8 24 -1 24 -14z m1320 5 c0
-8 -5 -12 -10 -9 -6 4 -8 11 -5 16 9 14 15 11 15 -7z m-1192 -15 c2 -5 8 -7
13 -3 19 12 7 -13 -26 -50 -31 -34 -35 -37 -35 -18 0 13 -6 22 -15 22 -18 0
-38 37 -31 57 5 12 15 14 49 9 23 -4 44 -11 45 -17z m-273 -8 c3 -5 1 -12 -5
-16 -5 -3 -10 1 -10 9 0 18 6 21 15 7z m85 -1 c0 -5 7 -7 15 -4 9 4 15 0 15
-8 0 -22 -20 -36 -41 -31 -23 6 -27 53 -4 53 8 0 15 -4 15 -10z m280 -44 c0
-15 -50 -56 -69 -56 -16 0 -14 8 12 40 23 31 57 40 57 16z m530 -16 c0 -5 -4
-10 -10 -10 -5 0 -10 5 -10 10 0 6 5 10 10 10 6 0 10 -4 10 -10z m445 0 c-3
-5 -15 -10 -26 -10 -10 0 -19 5 -19 10 0 6 12 10 26 10 14 0 23 -4 19 -10z
m1132 -12 c-3 -8 -6 -5 -6 6 -1 11 2 17 5 13 3 -3 4 -12 1 -19z m-1027 -7 c0
-6 -4 -13 -10 -16 -5 -3 -10 1 -10 9 0 9 5 16 10 16 6 0 10 -4 10 -9z m820 -1
c0 -5 -4 -10 -10 -10 -5 0 -10 5 -10 10 0 6 5 10 10 10 6 0 10 -4 10 -10z
m-2042 -42 c-2 -17 -8 -33 -14 -35 -16 -5 -25 50 -11 59 22 14 28 8 25 -24z
m152 1 c0 -3 -6 -6 -14 -6 -8 0 -11 8 -8 20 4 14 7 16 13 5 5 -7 9 -16 9 -19z
m784 7 c-3 -7 2 -19 11 -26 8 -7 15 -20 15 -30 0 -20 -27 -46 -37 -37 -3 4
-12 2 -20 -4 -10 -9 -13 -8 -13 4 0 9 4 18 9 22 6 3 13 26 17 50 3 25 10 42
15 40 4 -3 6 -12 3 -19z m156 10 c0 -16 -18 -31 -27 -22 -8 8 5 36 17 36 5 0
10 -6 10 -14z m-410 -41 c-15 -28 -40 -41 -40 -21 0 7 10 26 22 41 25 32 38
17 18 -20z m1422 30 c0 -5 -5 -11 -11 -13 -6 -2 -11 4 -11 13 0 9 5 15 11 13
6 -2 11 -8 11 -13z m-2162 -54 c0 -6 -4 -13 -10 -16 -5 -3 -10 1 -10 9 0 9 5
16 10 16 6 0 10 -4 10 -9z m497 -13 c-3 -8 -6 -5 -6 6 -1 11 2 17 5 13 3 -3 4
-12 1 -19z m256 5 c8 -7 -31 -53 -45 -53 -13 0 -9 22 9 42 17 19 26 22 36 11z
m1477 -48 c0 -16 -27 -32 -37 -21 -7 7 16 36 28 36 5 0 9 -7 9 -15z m-1875
-56 c2 -45 -4 -54 -22 -32 -8 10 -12 13 -9 7 7 -14 -19 -37 -45 -41 -23 -3
-41 27 -29 48 5 7 14 15 20 15 5 1 15 2 20 3 6 0 9 7 8 14 -2 6 5 11 15 11 9
-1 17 3 17 8 0 5 5 8 12 6 6 -2 12 -20 13 -39z m1779 5 c9 -3 16 -13 16 -21 0
-20 -34 -12 -38 10 -4 19 -1 20 22 11z m-1320 -57 c-17 -55 -44 -57 -44 -3 0
40 7 48 32 35 14 -7 17 -16 12 -32z m-834 29 c0 -3 -4 -8 -10 -11 -5 -3 -10
-1 -10 4 0 6 5 11 10 11 6 0 10 -2 10 -4z m-210 -27 c0 -7 -11 -22 -25 -35
-20 -19 -25 -20 -25 -7 0 18 28 53 42 53 4 0 8 -5 8 -11z m260 -19 c0 -20 -5
-30 -15 -30 -8 0 -15 -7 -15 -15 0 -8 -4 -15 -10 -15 -14 0 -12 14 7 55 20 43
33 45 33 5z m615 10 c-3 -5 -10 -10 -16 -10 -5 0 -9 5 -9 10 0 6 7 10 16 10 8
0 12 -4 9 -10z m-855 -69 c0 -6 -4 -13 -10 -16 -5 -3 -10 1 -10 9 0 9 5 16 10
16 6 0 10 -4 10 -9z m449 -35 c-13 -14 -41 -16 -35 -3 3 7 9 20 12 30 6 17 7
17 20 0 8 -11 9 -22 3 -27z m1041 28 c0 -8 -4 -12 -10 -9 -5 3 -10 10 -10 16
0 5 5 9 10 9 6 0 10 -7 10 -16z m-1390 -4 c0 -5 -4 -10 -10 -10 -5 0 -10 5
-10 10 0 6 5 10 10 10 6 0 10 -4 10 -10z m543 -11 c-22 -22 -43 -19 -43 7 0 9
11 14 32 14 l32 0 -21 -21z m397 1 c0 -5 -9 -14 -21 -20 -19 -11 -20 -10 -9 9
11 22 30 29 30 11z"/>
<path d="M2415 2700 c3 -5 8 -10 11 -10 2 0 4 5 4 10 0 6 -5 10 -11 10 -5 0
-7 -4 -4 -10z"/>
<path d="M1910 1780 c0 -6 4 -9 9 -6 5 4 12 1 14 -4 3 -6 4 -5 3 2 -3 15 -26
23 -26 8z"/>
<path d="M2046 1555 c4 -8 8 -15 10 -15 2 0 4 7 4 15 0 8 -4 15 -10 15 -5 0
-7 -7 -4 -15z"/>
<path d="M2011 1384 c0 -11 3 -14 6 -6 3 7 2 16 -1 19 -3 4 -6 -2 -5 -13z"/>
<path d="M1791 1154 c0 -11 3 -14 6 -6 3 7 2 16 -1 19 -3 4 -6 -2 -5 -13z"/>
<path d="M1780 1120 c0 -5 5 -10 11 -10 5 0 7 5 4 10 -3 6 -8 10 -11 10 -2 0
-4 -4 -4 -10z"/>
<path d="M1900 1039 c0 -5 5 -7 10 -4 6 3 10 8 10 11 0 2 -4 4 -10 4 -5 0 -10
-5 -10 -11z"/>
<path d="M1266 1184 c-9 -24 -7 -28 9 -14 17 14 20 30 6 30 -5 0 -12 -7 -15
-16z"/>
<path d="M1228 1143 c7 -3 16 -2 19 1 4 3 -2 6 -13 5 -11 0 -14 -3 -6 -6z"/>
<path d="M1180 1031 c0 -7 -4 -10 -9 -6 -5 3 -12 1 -16 -5 -3 -5 1 -10 9 -10
17 0 31 18 22 27 -3 4 -6 1 -6 -6z"/>
<path d="M1230 921 c0 -10 19 -25 25 -20 1 2 -3 10 -11 17 -8 7 -14 8 -14 3z"/>
<path d="M4020 1281 c0 -6 5 -13 10 -16 6 -3 10 1 10 9 0 9 -4 16 -10 16 -5 0
-10 -4 -10 -9z"/>
<path d="M3990 1202 c0 -5 7 -15 15 -22 11 -9 12 -16 5 -25 -6 -8 -8 -25 -4
-41 l7 -29 10 28 c9 29 27 37 27 12 0 -8 -5 -15 -11 -15 -5 0 -7 -5 -3 -12 5
-8 13 -4 26 11 23 29 24 54 1 49 -10 -2 -30 9 -45 25 -16 16 -28 25 -28 19z"/>
<path d="M4059 1083 c-25 -6 -41 -49 -23 -63 11 -10 14 -9 14 9 0 12 4 20 9
17 5 -3 11 4 14 16 7 26 7 25 -14 21z"/>
<path d="M4086 1034 c-9 -24 -7 -28 9 -14 17 14 20 30 6 30 -5 0 -12 -7 -15
-16z"/>
<path d="M2740 813 c0 -5 5 -15 10 -23 8 -12 10 -11 10 8 0 12 -4 22 -10 22
-5 0 -10 -3 -10 -7z"/>
<path d="M3260 868 c0 -37 19 -79 38 -86 6 -2 12 4 12 13 0 9 -4 13 -10 10 -5
-3 -10 3 -10 14 0 11 -4 23 -10 26 -5 3 -10 14 -10 23 0 15 2 15 11 2 8 -12
10 -12 7 4 -5 35 -28 30 -28 -6z"/>
<path d="M1407 762 c2 -10 -3 -24 -11 -31 -9 -8 -16 -20 -16 -27 0 -12 4 -12
21 -2 17 10 23 10 26 1 8 -22 43 -15 43 7 0 11 -6 20 -13 20 -8 0 -20 11 -27
25 -16 29 -30 33 -23 7z"/>
<path d="M1357 663 c-4 -3 -7 -11 -7 -17 0 -6 5 -5 12 2 6 6 9 14 7 17 -3 3
-9 2 -12 -2z"/>
<path d="M1400 610 c-8 -5 -12 -11 -9 -14 2 -3 11 -1 19 4 8 5 12 11 9 14 -2
3 -11 1 -19 -4z"/>
<path d="M3664 578 c-4 -6 -3 -8 4 -4 5 3 13 0 15 -6 3 -8 6 -6 6 5 1 19 -14
23 -25 5z"/>
<path d="M3772 550 c0 -14 2 -19 5 -12 2 6 2 18 0 25 -3 6 -5 1 -5 -13z"/>
<path d="M3431 514 c0 -11 3 -14 6 -6 3 7 2 16 -1 19 -3 4 -6 -2 -5 -13z"/>
<path d="M2920 5243 c8 -4 21 -13 28 -22 12 -14 13 -14 8 2 -3 10 -6 21 -6 23
0 2 -10 4 -22 3 -16 0 -18 -2 -8 -6z"/>
<path d="M1723 5233 c-18 -6 -16 -23 1 -23 17 0 30 16 19 23 -5 2 -14 2 -20 0z"/>
<path d="M2850 5193 c0 -26 18 -29 46 -8 18 13 18 14 -5 8 -14 -4 -26 -1 -32
8 -6 11 -9 8 -9 -8z"/>
<path d="M1920 5163 c0 -14 -5 -21 -13 -17 -9 3 -13 -3 -13 -18 1 -28 14 -44
38 -45 14 -1 18 5 18 31 0 18 -7 41 -15 52 -14 19 -14 18 -15 -3z"/>
<path d="M1976 5138 c-10 -37 -6 -45 9 -18 14 27 23 29 36 9 11 -18 21 -6 13
15 -9 25 -50 20 -58 -6z"/>
<path d="M3500 5035 c19 -14 38 -25 43 -25 6 0 -7 11 -27 25 -20 14 -40 25
-43 25 -4 0 8 -11 27 -25z"/>
<path d="M1206 4985 c-3 -8 -2 -15 3 -15 5 0 14 7 21 15 10 12 10 15 -3 15 -8
0 -17 -7 -21 -15z"/>
<path d="M2204 4957 c-11 -29 39 -108 56 -91 13 13 -8 57 -36 80 -17 14 -17
15 -1 10 9 -3 17 -1 17 4 0 15 -30 12 -36 -3z"/>
<path d="M1251 4894 c0 -11 3 -14 6 -6 3 7 2 16 -1 19 -3 4 -6 -2 -5 -13z"/>
<path d="M1962 4898 c-15 -15 2 -38 28 -38 10 0 21 -7 24 -16 3 -8 11 -12 17
-9 7 5 5 13 -5 24 -9 10 -16 22 -16 28 0 6 -7 14 -16 17 -20 8 -18 8 -32 -6z"/>
<path d="M3625 4880 c10 -11 20 -20 23 -20 3 0 -3 9 -13 20 -10 11 -20 20 -23
20 -3 0 3 -9 13 -20z"/>
<path d="M2070 4872 c0 -5 7 -9 15 -9 8 0 15 4 15 9 0 4 -7 8 -15 8 -8 0 -15
-4 -15 -8z"/>
<path d="M2220 4840 c0 -6 7 -10 15 -10 8 0 15 2 15 4 0 2 -7 6 -15 10 -8 3
-15 1 -15 -4z"/>
<path d="M2040 4719 c0 -5 5 -7 10 -4 6 3 10 8 10 11 0 2 -4 4 -10 4 -5 0 -10
-5 -10 -11z"/>
<path d="M2085 4580 c4 -6 11 -8 16 -5 14 9 11 15 -7 15 -8 0 -12 -5 -9 -10z"/>
<path d="M1880 4527 c0 -23 29 -67 44 -67 6 0 20 -16 30 -35 19 -35 46 -47 46
-21 0 16 -26 46 -40 46 -5 0 -10 10 -12 21 -2 12 -12 27 -23 33 -11 6 -25 18
-32 26 -11 13 -12 13 -13 -3z"/>
<path d="M640 3354 c0 -8 5 -12 10 -9 6 4 8 11 5 16 -9 14 -15 11 -15 -7z"/>
<path d="M3750 3298 c0 -4 7 -8 15 -8 8 0 15 4 15 8 0 5 -7 9 -15 9 -8 0 -15
-4 -15 -9z"/>
<path d="M583 3268 c-19 -24 -24 -38 -15 -38 5 0 14 11 20 25 13 27 10 32 -5
13z"/>
<path d="M1586 3263 c-13 -13 -5 -41 12 -45 15 -4 18 -1 14 19 -5 25 -15 36
-26 26z"/>
<path d="M3757 2960 c-3 -11 -1 -23 4 -26 5 -3 9 6 9 20 0 31 -6 34 -13 6z"/>
<path d="M3730 2945 c0 -5 5 -17 10 -25 5 -8 10 -10 10 -5 0 6 -5 17 -10 25
-5 8 -10 11 -10 5z"/>
<path d="M670 2874 c0 -8 5 -12 10 -9 6 3 10 10 10 16 0 5 -4 9 -10 9 -5 0
-10 -7 -10 -16z"/>
<path d="M803 2683 c-22 -8 -14 -25 10 -22 12 2 28 0 36 -5 8 -5 17 -3 23 5 7
11 11 11 15 1 6 -14 23 -6 23 11 0 12 -82 20 -107 10z"/>
<path d="M920 2674 c0 -14 3 -15 18 -3 9 7 19 15 21 16 2 2 -5 3 -17 3 -14 0
-22 -6 -22 -16z"/>
<path d="M755 2650 c-4 -6 -13 -9 -21 -6 -7 3 -16 1 -19 -4 -8 -13 25 -13 45
0 8 5 12 12 8 15 -3 4 -9 1 -13 -5z"/>
<path d="M631 2404 c0 -11 3 -14 6 -6 3 7 2 16 -1 19 -3 4 -6 -2 -5 -13z"/>
<path d="M497 2403 c-4 -3 -7 -11 -7 -17 0 -6 5 -5 12 2 6 6 9 14 7 17 -3 3
-9 2 -12 -2z"/>
<path d="M571 2386 c-13 -14 -33 -26 -44 -28 -11 -2 -22 -8 -24 -15 -3 -9 3
-9 28 0 32 12 79 48 79 61 0 13 -17 5 -39 -18z"/>
<path d="M711 2353 c-21 -21 -42 -51 -46 -68 l-6 -29 23 19 c13 11 27 26 31
33 4 7 19 23 33 37 25 25 31 45 14 45 -5 0 -27 -17 -49 -37z"/>
<path d="M482 2350 c0 -14 2 -19 5 -12 2 6 2 18 0 25 -3 6 -5 1 -5 -13z"/>
<path d="M390 2169 c0 -5 5 -7 10 -4 6 3 10 8 10 11 0 2 -4 4 -10 4 -5 0 -10
-5 -10 -11z"/>
<path d="M1570 2148 c-6 -21 -8 -29 -9 -45 -1 -14 -3 -15 -10 -4 -6 10 -10 10
-16 1 -9 -15 3 -61 21 -82 10 -11 12 -18 5 -23 -6 -3 -11 -1 -11 6 0 10 -3 10
-12 1 -9 -9 -6 -16 12 -32 27 -24 34 -25 27 -6 -3 8 1 20 9 27 10 8 12 15 4
23 -13 13 -13 29 0 21 6 -3 10 2 10 11 0 14 -3 15 -12 6 -7 -7 -16 -12 -20
-12 -14 0 -9 28 8 44 12 13 13 22 6 44 -6 15 -11 24 -12 20z"/>
<path d="M377 2109 c-4 -16 -3 -18 9 -8 16 13 19 29 5 29 -5 0 -11 -9 -14 -21z"/>
<path d="M1671 2084 c0 -11 3 -14 6 -6 3 7 2 16 -1 19 -3 4 -6 -2 -5 -13z"/>
<path d="M340 2026 c0 -9 5 -16 10 -16 6 0 10 4 10 9 0 6 -4 13 -10 16 -5 3
-10 -1 -10 -9z"/>
<path d="M458 2000 c-7 -24 -3 -38 8 -28 3 4 4 17 2 30 l-3 23 -7 -25z"/>
<path d="M153 1948 c-15 -20 -25 -38 -20 -38 3 0 12 11 21 25 17 26 16 35 -1
13z"/>
<path d="M457 1933 c-4 -3 -7 -11 -7 -17 0 -6 5 -5 12 2 6 6 9 14 7 17 -3 3
-9 2 -12 -2z"/>
<path d="M40 1906 c-9 -12 -9 -16 -1 -16 8 0 10 -8 6 -20 -4 -11 -2 -20 4 -20
6 0 11 6 11 14 0 8 6 16 13 19 9 3 8 9 -4 21 -14 15 -17 15 -29 2z"/>
<path d="M395 1912 c-11 -8 -18 -32 -10 -32 3 0 14 9 25 20 19 19 7 29 -15 12z"/>
<path d="M1717 1883 c-10 -10 -8 -25 2 -18 21 12 20 -16 -1 -37 -23 -23 -35
-68 -18 -68 11 0 50 41 50 52 0 5 5 6 10 3 16 -10 12 21 -5 35 -8 7 -15 19
-15 26 0 15 -12 19 -23 7z"/>
<path d="M116 1853 c-12 -16 -21 -22 -24 -15 -2 7 -8 10 -13 6 -5 -3 -2 -12 6
-21 12 -11 19 -12 29 -4 11 9 16 9 21 0 4 -6 1 -15 -6 -20 -12 -7 -12 -9 0 -9
11 0 10 -4 -3 -19 -17 -19 -17 -19 1 -15 11 3 25 18 31 32 8 20 10 21 6 5 -6
-26 11 -32 20 -7 3 9 -4 25 -17 38 -12 12 -21 30 -19 39 5 25 -10 20 -32 -10z"/>
<path d="M336 1863 c-11 -11 -6 -23 8 -23 8 0 17 4 20 9 7 10 -19 23 -28 14z"/>
<path d="M296 1826 c6 -16 44 -29 44 -15 0 5 -7 9 -15 9 -8 0 -15 5 -15 10 0
6 -4 10 -10 10 -5 0 -7 -6 -4 -14z"/>
<path d="M210 1801 c0 -5 7 -15 17 -22 15 -13 15 -12 4 9 -12 23 -21 28 -21
13z"/>
<path d="M615 1741 c-3 -7 2 -11 14 -11 14 0 21 -6 21 -20 0 -11 4 -20 9 -20
5 0 9 11 9 25 0 14 -4 25 -8 25 -5 0 -15 3 -23 6 -8 3 -18 1 -22 -5z"/>
<path d="M3 1687 c-1 -29 1 -44 4 -34 5 18 29 24 35 7 2 -5 3 11 4 38 0 26 -1
41 -3 35 -3 -9 -10 -10 -23 -3 -16 8 -17 4 -17 -43z"/>
<path d="M61 1704 c0 -11 3 -14 6 -6 3 7 2 16 -1 19 -3 4 -6 -2 -5 -13z"/>
<path d="M190 1702 c0 -22 -22 -44 -40 -40 -7 2 -15 -3 -17 -10 -4 -10 2 -11
24 -5 15 4 38 7 50 6 19 -1 20 2 11 28 -12 36 -28 47 -28 21z"/>
<path d="M4162 1670 c0 -14 2 -19 5 -12 2 6 2 18 0 25 -3 6 -5 1 -5 -13z"/>
<path d="M100 1609 c0 -6 -3 -8 -8 -5 -12 7 -39 -17 -39 -35 0 -13 7 -12 36 8
20 14 37 20 39 14 4 -13 22 -15 22 -3 0 5 -11 14 -25 20 -17 8 -25 8 -25 1z"/>
<path d="M6416 1355 c-9 -9 -17 -11 -21 -5 -12 19 -33 10 -39 -16 -5 -19 -1
-33 13 -48 24 -26 28 -56 7 -56 -8 0 -17 -8 -19 -17 -4 -15 -6 -15 -12 5 -4
12 -15 22 -24 23 -9 0 -26 2 -38 3 -30 4 -40 -43 -12 -63 19 -14 26 -41 10
-41 -19 0 -29 -79 -13 -104 3 -5 14 8 24 29 12 23 31 42 49 48 26 10 29 15 23
40 l-6 29 28 -19 c16 -10 25 -13 21 -6 -5 7 1 16 13 23 11 6 20 16 20 23 0 18
50 20 56 2 9 -22 -15 -85 -30 -79 -9 4 -12 -9 -12 -48 0 -29 -3 -62 -8 -73 -6
-15 -5 -16 2 -6 8 11 11 9 15 -10 3 -16 5 -11 6 16 l2 40 14 -39 c7 -21 19
-42 26 -46 6 -4 8 -13 5 -19 -4 -6 -3 -11 2 -11 13 0 24 44 12 48 -6 2 -10 21
-10 42 0 26 -5 40 -16 44 -9 4 -14 9 -11 13 10 10 37 -18 37 -38 0 -16 5 -13
29 13 16 18 27 36 25 40 -3 4 -23 13 -44 19 -22 7 -40 15 -40 20 0 15 33 18
53 4 12 -8 33 -15 47 -15 14 0 31 -5 36 -10 7 -7 20 -6 40 5 38 20 36 20 84
-20 53 -45 86 -46 95 -5 7 32 25 41 25 13 0 -37 -24 -83 -45 -85 -35 -2 -59 2
-66 13 -3 6 -17 9 -30 7 -23 -4 -23 -5 6 -17 l30 -13 -25 -13 c-14 -7 -28 -11
-32 -8 -5 2 -11 -2 -14 -10 -3 -8 -13 -13 -23 -10 -9 2 -25 -5 -36 -17 -18
-20 -18 -22 -2 -49 24 -41 21 -48 -9 -18 -21 22 -30 25 -46 16 -11 -6 -17 -17
-14 -25 3 -8 1 -14 -4 -14 -6 0 -10 -5 -10 -10 0 -6 6 -10 13 -9 26 3 36 -2
77 -43 25 -26 38 -34 31 -20 -11 20 -9 22 15 22 22 0 25 -2 14 -15 -9 -10 -9
-15 -1 -15 6 0 11 5 11 10 0 6 10 10 23 11 16 0 18 2 7 7 -11 5 -14 16 -10 37
l6 30 7 -27 c11 -40 31 -36 23 4 -6 29 -5 30 7 14 15 -20 57 -15 57 7 0 7 4 6
10 -3 5 -9 5 -19 -1 -26 -7 -8 -6 -14 1 -19 16 -10 29 3 23 25 -3 11 -1 20 5
20 5 0 12 -8 14 -18 4 -14 16 -19 48 -20 24 -1 48 -6 55 -12 14 -12 105 -4
153 13 l32 11 0 154 c0 99 -3 151 -10 147 -5 -3 -10 -1 -10 4 0 6 -6 11 -14
11 -17 0 -30 -31 -17 -39 15 -10 1 -60 -15 -54 -10 4 -14 -3 -14 -26 0 -28 -3
-31 -25 -27 -27 5 -32 -3 -14 -21 18 -18 1 -53 -27 -54 -13 -1 -30 -2 -36 -3
-7 -1 -13 8 -13 19 0 12 -9 21 -24 25 -17 4 -27 15 -33 35 -11 42 3 50 56 30
47 -18 74 -13 45 8 -9 7 -19 25 -23 40 -4 16 -19 40 -33 53 -24 23 -27 23 -44
8 -17 -16 -19 -15 -26 2 -9 23 -22 37 -49 52 -25 13 -34 7 -35 -22 0 -21 0
-21 -9 0 -5 12 -19 29 -31 38 -22 15 -25 14 -46 -6 -13 -12 -23 -27 -23 -34 0
-20 -22 -28 -34 -13 -6 8 -33 25 -60 38 -27 13 -51 32 -53 42 -3 10 -9 16 -13
14 -5 -3 -2 -18 6 -33 17 -32 18 -42 4 -42 -6 0 -15 11 -20 25 -5 14 -14 25
-20 25 -5 0 -10 12 -10 26 0 14 4 23 10 19 17 -10 11 4 -10 25 -24 24 -30 25
-30 5 0 -29 -19 -14 -26 20 -8 42 -17 50 -38 30z m-4 -47 c-6 -6 -15 -8 -19
-4 -4 4 -1 11 7 16 19 12 27 3 12 -12z m386 -385 c-2 -9 -11 -17 -20 -19 -15
-2 -18 5 -18 39 l0 41 21 -22 c11 -13 19 -30 17 -39z m28 43 c3 -8 12 -12 20
-9 9 3 14 -1 14 -12 0 -9 -4 -13 -10 -10 -6 4 -10 -7 -10 -27 l-1 -33 -13 35
c-7 19 -17 43 -21 53 -4 10 -3 17 4 17 7 0 14 -6 17 -14z m104 1 c0 -8 9 -22
20 -32 18 -16 18 -18 2 -40 -20 -27 -32 -23 -32 11 0 14 -4 23 -9 20 -15 -9
-22 24 -8 39 15 18 27 19 27 2z m-243 -39 c-3 -8 -6 -5 -6 6 -1 11 2 17 5 13
3 -3 4 -12 1 -19z"/>
<path d="M6675 1345 c-79 -23 -95 -29 -95 -37 0 -11 23 -10 53 1 14 6 38 6 53
2 31 -8 74 7 74 27 0 11 -56 16 -85 7z"/>
<path d="M7114 1309 c-10 -17 6 -48 23 -42 9 4 21 -1 29 -12 17 -23 17 -18 3
23 -10 30 -44 49 -55 31z"/>
<path d="M6755 1290 c-7 -11 18 -24 35 -18 6 2 1 9 -9 15 -13 8 -22 9 -26 3z"/>
<path d="M6320 1275 c0 -8 2 -15 4 -15 2 0 12 -3 21 -7 15 -5 16 -3 6 15 -13
25 -31 29 -31 7z"/>
<path d="M6650 1282 c0 -14 59 -52 65 -43 3 5 -8 19 -24 30 -31 23 -41 26 -41
13z"/>
<path d="M6221 1251 c-8 -6 -11 -16 -7 -27 5 -12 10 -14 17 -7 16 16 7 45 -10
34z"/>
<path d="M951 1191 c-8 -5 -9 -11 -3 -15 5 -3 12 1 16 9 6 17 6 18 -13 6z"/>
<path d="M4640 1182 c0 -5 7 -9 15 -9 8 0 12 4 9 9 -3 4 -9 8 -15 8 -5 0 -9
-4 -9 -8z"/>
<path d="M7166 1175 c4 -8 8 -15 10 -15 2 0 4 7 4 15 0 8 -4 15 -10 15 -5 0
-7 -7 -4 -15z"/>
<path d="M230 1145 c0 -14 5 -25 10 -25 6 0 10 11 10 25 0 14 -4 25 -10 25 -5
0 -10 -11 -10 -25z"/>
<path d="M6115 1151 c-6 -19 12 -71 25 -71 14 0 18 40 7 65 -14 30 -24 32 -32
6z"/>
<path d="M6216 1155 c4 -8 8 -15 10 -15 2 0 4 7 4 15 0 8 -4 15 -10 15 -5 0
-7 -7 -4 -15z"/>
<path d="M7080 1149 c0 -5 5 -7 10 -4 6 3 10 8 10 11 0 2 -4 4 -10 4 -5 0 -10
-5 -10 -11z"/>
<path d="M954 1135 c-3 -8 -2 -20 2 -27 9 -13 10 -18 13 -40 1 -7 7 -4 13 7 6
11 18 26 26 33 14 11 14 12 -1 12 -9 0 -17 -4 -17 -10 0 -5 -5 -10 -11 -10 -7
0 -9 10 -7 25 6 27 -9 35 -18 10z"/>
<path d="M1040 1110 c0 -5 5 -10 11 -10 5 0 7 5 4 10 -3 6 -8 10 -11 10 -2 0
-4 -4 -4 -10z"/>
<path d="M7081 1103 c7 -12 15 -20 18 -17 3 2 -3 12 -13 22 -17 16 -18 16 -5
-5z"/>
<path d="M6708 1088 c-21 -26 -21 -28 -7 -48 8 -12 9 -10 4 7 -4 14 0 25 11
31 9 5 15 14 13 20 -2 6 -12 2 -21 -10z"/>
<path d="M7030 1078 c0 -14 7 -28 15 -32 19 -7 19 13 0 38 -14 19 -15 19 -15
-6z"/>
<path d="M220 1081 c0 -5 7 -12 16 -15 14 -5 15 -4 4 9 -14 17 -20 19 -20 6z"/>
<path d="M6600 1071 c0 -10 30 -24 37 -17 3 3 2 9 -2 15 -8 13 -35 15 -35 2z"/>
<path d="M6200 1045 c27 -29 43 -32 38 -7 -2 10 -11 16 -21 14 -9 -2 -17 2
-17 8 0 5 -5 10 -12 10 -6 0 -1 -11 12 -25z"/>
<path d="M305 1040 c-3 -5 -1 -10 4 -10 6 0 11 5 11 10 0 6 -2 10 -4 10 -3 0
-8 -4 -11 -10z"/>
<path d="M753 962 c-32 -48 -41 -72 -25 -72 4 0 13 5 20 12 9 9 12 9 12 -3 0
-17 39 30 40 48 0 6 5 13 11 15 8 3 8 10 -2 26 -8 12 -16 22 -19 22 -3 0 -20
-22 -37 -48z"/>
<path d="M6225 984 c-10 -16 -13 -30 -7 -36 6 -6 14 2 22 22 16 40 8 48 -15
14z"/>
<path d="M6160 990 c-12 -7 -12 -12 -2 -22 10 -10 15 -10 22 2 19 29 9 39 -20
20z"/>
<path d="M4820 980 c0 -17 70 -101 112 -135 116 -94 185 -157 198 -181 8 -14
27 -32 42 -40 31 -16 36 -32 13 -40 -8 -4 -15 -18 -14 -33 1 -45 23 -137 38
-154 7 -9 11 -23 8 -31 -3 -7 3 -27 13 -44 10 -17 16 -39 13 -51 -4 -15 -1
-21 11 -21 20 0 21 22 2 58 -16 32 -23 102 -12 120 4 7 3 12 -3 12 -5 0 -16
13 -24 30 -24 48 6 115 65 146 16 8 26 19 23 25 -4 6 -13 6 -23 0 -11 -6 -27
-3 -51 10 -19 10 -38 16 -43 13 -13 -8 -38 16 -38 36 0 10 -10 20 -22 24 -39
10 -158 104 -158 124 0 11 -9 27 -20 37 -10 9 -26 36 -35 59 -15 38 -18 41
-55 41 -22 0 -40 -2 -40 -5z"/>
<path d="M824 933 c-4 -21 -11 -43 -16 -50 -5 -7 -5 -14 2 -18 13 -8 13 -62 0
-70 -5 -3 -10 -23 -10 -43 1 -35 2 -36 15 -18 9 11 15 14 15 7 0 -7 9 -11 23
-9 18 2 21 8 19 31 -3 25 0 27 21 22 19 -5 25 -2 30 15 4 17 3 19 -8 10 -10
-8 -14 -4 -20 17 -5 21 -8 24 -16 12 -8 -12 -10 -12 -19 1 -5 8 -10 21 -10 28
0 6 -5 12 -11 12 -6 0 -8 -7 -4 -17 5 -14 3 -15 -6 -6 -9 9 -8 17 5 34 18 26
21 65 7 74 -6 3 -13 -11 -17 -32z"/>
<path d="M2275 940 c-4 -12 -5 -24 -2 -27 3 -2 8 5 12 17 4 12 5 24 2 27 -3 2
-8 -5 -12 -17z"/>
<path d="M2107 923 c-3 -5 -7 -24 -11 -43 -5 -28 -4 -30 4 -13 6 14 15 21 24
17 11 -4 13 0 9 15 -6 24 -19 35 -26 24z"/>
<path d="M4032 908 c-15 -15 -16 -85 -1 -94 8 -5 10 3 7 27 -3 22 0 37 8 44 8
6 10 15 6 22 -6 10 -11 10 -20 1z"/>
<path d="M690 895 c-8 -9 -8 -15 -2 -15 12 0 26 19 19 26 -2 2 -10 -2 -17 -11z"/>
<path d="M4090 900 c0 -13 18 -22 24 -11 3 5 -1 11 -9 15 -8 3 -15 1 -15 -4z"/>
<path d="M2046 864 c-3 -8 -10 -13 -14 -10 -5 3 -14 -7 -21 -22 -10 -24 -10
-25 2 -9 8 9 22 17 31 17 9 0 16 8 16 20 0 24 -6 26 -14 4z"/>
<path d="M2156 861 c-3 -5 1 -11 9 -14 9 -4 12 -1 8 9 -6 16 -10 17 -17 5z"/>
<path d="M658 838 c-14 -20 -17 -21 -33 -8 -16 14 -17 13 -11 -7 5 -16 1 -25
-15 -37 -24 -17 -32 -67 -16 -100 9 -18 10 -18 19 -2 6 10 10 34 11 54 0 21 2
29 4 20 3 -10 9 -18 15 -18 6 0 7 12 3 31 -5 22 -4 29 4 25 6 -4 11 0 11 9 0
9 4 14 9 11 5 -3 11 5 13 19 6 31 4 31 -14 3z"/>
<path d="M743 816 c-11 -37 -1 -66 22 -66 19 0 19 39 2 74 l-14 25 -10 -33z"/>
<path d="M4602 820 c0 -14 2 -19 5 -12 2 6 2 18 0 25 -3 6 -5 1 -5 -13z"/>
<path d="M2070 825 c-8 -29 -6 -55 2 -47 5 5 8 20 5 33 -2 13 -5 20 -7 14z"/>
<path d="M510 812 c0 -4 5 -13 11 -19 17 -17 -10 -73 -36 -75 -11 0 -27 -1
-35 -2 -9 -1 -17 -14 -20 -31 -6 -38 -36 -93 -66 -123 -12 -13 -20 -30 -17
-38 6 -16 23 -19 23 -4 0 6 18 10 39 10 26 0 41 5 45 16 3 9 13 14 20 11 15
-6 26 12 26 43 0 22 -40 49 -41 28 0 -7 -4 -4 -8 7 -11 27 -2 47 18 40 22 -7
61 30 61 58 0 16 3 18 9 9 7 -11 10 -10 15 3 11 31 7 55 -9 49 -9 -4 -15 0
-15 10 0 9 -4 16 -10 16 -5 0 -10 -4 -10 -8z"/>
<path d="M590 810 c0 -5 5 -10 10 -10 6 0 10 5 10 10 0 6 -4 10 -10 10 -5 0
-10 -4 -10 -10z"/>
<path d="M2111 799 c-1 -29 -29 -59 -54 -59 -9 0 -17 -5 -17 -11 0 -5 -4 -8
-9 -4 -16 9 -21 -10 -11 -41 l10 -29 -4 28 c-4 31 0 33 20 13 28 -29 91 17 65
48 -7 9 -7 16 0 23 6 6 9 21 6 34 -4 23 -4 23 -6 -2z"/>
<path d="M2030 790 c0 -5 5 -10 10 -10 6 0 10 5 10 10 0 6 -4 10 -10 10 -5 0
-10 -4 -10 -10z"/>
<path d="M1986 759 c-18 -30 -18 -31 0 -27 12 2 18 11 16 22 -2 11 1 15 7 11
7 -3 8 0 5 9 -8 20 -7 21 -28 -15z"/>
<path d="M4066 777 c3 -10 9 -15 12 -12 3 3 0 11 -7 18 -10 9 -11 8 -5 -6z"/>
<path d="M6890 771 c0 -12 28 -22 35 -12 3 5 -2 12 -11 15 -21 8 -24 8 -24 -3z"/>
<path d="M4090 705 c0 -8 6 -15 14 -15 8 0 17 -6 19 -12 3 -8 6 -6 6 4 1 10
-8 22 -19 28 -16 9 -20 8 -20 -5z"/>
<path d="M397 693 c-4 -3 -7 -11 -7 -17 0 -6 5 -5 12 2 6 6 9 14 7 17 -3 3 -9
2 -12 -2z"/>
<path d="M4070 671 c0 -6 6 -14 14 -17 8 -3 12 -12 9 -20 -3 -8 0 -14 5 -14
22 0 21 18 -3 40 -14 13 -25 18 -25 11z"/>
<path d="M1981 654 c0 -11 3 -14 6 -6 3 7 2 16 -1 19 -3 4 -6 -2 -5 -13z"/>
<path d="M3930 651 c0 -11 -6 -22 -12 -25 -7 -3 1 -3 17 1 39 8 40 9 22 28
-21 20 -27 19 -27 -4z"/>
<path d="M375 651 c-3 -5 -1 -12 4 -15 5 -3 11 1 15 9 6 16 -9 21 -19 6z"/>
<path d="M6880 650 c0 -5 5 -10 11 -10 5 0 7 5 4 10 -3 6 -8 10 -11 10 -2 0
-4 -4 -4 -10z"/>
<path d="M558 615 c-14 -28 -15 -39 -5 -64 12 -31 27 -36 35 -11 3 7 0 10 -7
6 -18 -12 -13 16 6 29 16 12 16 16 3 43 l-15 31 -17 -34z"/>
<path d="M4050 620 c0 -11 5 -20 10 -20 6 0 10 9 10 20 0 11 -4 20 -10 20 -5
0 -10 -9 -10 -20z"/>
<path d="M6914 631 c3 -5 18 -11 33 -14 26 -5 26 -4 8 9 -21 15 -49 19 -41 5z"/>
<path d="M4171 617 c0 -10 -5 -16 -10 -13 -12 8 -21 -18 -12 -33 12 -19 33 13
28 41 -3 16 -5 17 -6 5z"/>
<path d="M1875 610 c3 -5 11 -10 16 -10 6 0 7 5 4 10 -3 6 -11 10 -16 10 -6 0
-7 -4 -4 -10z"/>
<path d="M612 580 c0 -14 2 -19 5 -12 2 6 2 18 0 25 -3 6 -5 1 -5 -13z"/>
<path d="M4005 574 c-20 -20 -19 -33 3 -30 9 2 20 -1 23 -6 3 -5 10 -3 16 4 7
9 4 18 -8 30 -16 16 -20 16 -34 2z"/>
<path d="M220 563 c0 -12 5 -25 11 -28 19 -12 22 3 5 27 l-16 22 0 -21z"/>
<path d="M800 570 c-12 -7 -12 -12 -2 -22 10 -10 16 -8 30 6 9 11 12 16 5 12
-6 -3 -13 -2 -15 4 -2 6 -9 6 -18 0z"/>
<path d="M876 543 c-6 -14 -5 -15 5 -6 7 7 10 15 7 18 -3 3 -9 -2 -12 -12z"/>
<path d="M4205 540 c-3 -5 -1 -10 4 -10 6 0 11 5 11 10 0 6 -2 10 -4 10 -3 0
-8 -4 -11 -10z"/>
<path d="M1066 515 c-3 -9 -6 -22 -5 -28 0 -7 5 -1 10 12 5 13 8 26 5 28 -2 2
-6 -3 -10 -12z"/>
<path d="M4790 521 c0 -10 67 -71 77 -71 4 0 -11 18 -32 40 -42 43 -45 45 -45
31z"/>
<path d="M2970 485 l-23 -25 26 0 c19 0 25 4 21 15 -4 8 -1 15 5 15 6 0 11 5
11 10 0 17 -15 11 -40 -15z"/>
<path d="M3998 490 c-9 -10 -21 -27 -27 -38 -9 -17 -7 -21 12 -26 36 -10 41
-7 24 12 -25 27 -21 32 21 32 34 0 62 14 62 30 0 16 -76 7 -92 -10z"/>
<path d="M440 471 c0 -6 5 -13 10 -16 6 -3 10 1 10 9 0 9 -4 16 -10 16 -5 0
-10 -4 -10 -9z"/>
<path d="M3111 471 c-7 -5 -21 -6 -31 -4 -10 3 -21 0 -24 -6 -4 -6 0 -11 8
-11 9 0 16 -7 16 -16 0 -11 5 -14 16 -10 9 4 23 1 30 -5 11 -9 14 -7 16 10 0
11 1 26 2 33 1 15 -16 20 -33 9z"/>
<path d="M283 456 c-24 -11 -30 -31 -13 -41 14 -8 13 -25 -1 -25 -14 0 -35
-25 -51 -60 l-12 -25 -4 28 c-4 30 -22 38 -22 10 0 -10 -3 -35 -6 -55 -7 -40
10 -55 23 -20 4 9 18 34 31 55 19 28 31 37 53 37 29 0 33 6 45 73 7 40 -1 44
-43 23z"/>
<path d="M1045 459 c-4 -6 -5 -12 -2 -15 2 -3 7 2 10 11 7 17 1 20 -8 4z"/>
<path d="M2864 435 c-3 -14 -10 -25 -14 -25 -5 0 -15 -3 -24 -6 -11 -4 -16 -1
-16 11 0 14 -3 15 -15 5 -8 -7 -15 -21 -15 -32 0 -10 -7 -21 -15 -24 -8 -3
-17 -15 -20 -25 -5 -16 -9 -18 -21 -8 -13 10 -12 15 6 34 11 12 20 26 20 32 0
7 7 13 16 15 13 3 13 6 2 21 -13 17 -18 14 -75 -40 -65 -62 -103 -127 -85
-145 7 -7 12 -4 16 9 8 26 66 81 66 63 0 -8 -10 -24 -22 -37 -23 -24 -19 -40
7 -30 8 4 15 16 15 27 0 13 7 20 19 20 25 0 17 -37 -10 -45 -10 -4 -19 -14
-19 -22 0 -13 5 -12 25 7 14 13 25 28 25 34 0 6 9 22 20 36 14 18 22 22 28 13
6 -9 12 -8 25 7 19 23 33 25 44 8 8 -14 9 -18 12 -68 2 -30 3 -32 11 -14 9 24
59 30 73 10 5 -8 10 -6 17 6 16 27 50 11 50 -23 0 -22 -5 -29 -20 -29 -11 0
-20 6 -20 13 0 8 -4 7 -10 -3 -5 -8 -10 -10 -10 -5 0 6 -5 2 -11 -8 -7 -12
-17 -16 -31 -11 -16 5 -19 2 -16 -13 2 -10 11 -17 21 -17 9 1 17 -3 17 -8 0
-5 9 -7 19 -3 15 5 21 0 26 -25 9 -40 1 -48 -24 -26 -30 27 -41 11 -41 -57 1
-51 3 -59 13 -46 10 13 16 13 37 2 35 -18 68 -16 72 4 3 16 4 16 20 0 18 -19
53 -23 63 -7 4 6 -12 31 -34 57 -42 47 -52 87 -28 112 10 10 8 15 -8 27 -11 8
-20 20 -21 27 0 7 -2 20 -2 30 -3 34 -102 113 -110 88 -6 -19 -39 -12 -45 9
-4 15 0 20 14 20 12 0 19 7 19 18 0 10 6 24 13 31 10 11 9 13 -5 8 -12 -4 -18
-1 -18 8 0 25 -19 17 -26 -10z m126 -247 c0 -13 -23 -5 -28 10 -2 7 2 10 12 6
9 -3 16 -11 16 -16z m40 7 c0 -8 -7 -15 -15 -15 -16 0 -20 12 -8 23 11 12 23
8 23 -8z m0 -69 c0 -8 -4 -17 -9 -21 -12 -7 -24 12 -16 25 9 15 25 12 25 -4z"/>
<path d="M3940 450 c-5 -14 -8 -90 -4 -90 12 0 22 52 14 72 -5 13 -9 21 -10
18z"/>
<path d="M3160 415 c0 -16 6 -25 15 -25 17 0 20 16 5 25 -6 4 -8 11 -5 16 4 5
1 9 -4 9 -6 0 -11 -11 -11 -25z"/>
<path d="M3871 413 c0 -25 1 -26 9 -8 12 27 12 35 0 35 -5 0 -10 -12 -9 -27z"/>
<path d="M4081 424 c0 -11 3 -14 6 -6 3 7 2 16 -1 19 -3 4 -6 -2 -5 -13z"/>
<path d="M4156 413 c-6 -14 -5 -15 5 -6 7 7 10 15 7 18 -3 3 -9 -2 -12 -12z"/>
<path d="M880 410 c0 -5 5 -10 10 -10 6 0 10 5 10 10 0 6 -4 10 -10 10 -5 0
-10 -4 -10 -10z"/>
<path d="M1927 413 c-12 -11 -8 -33 6 -33 7 0 13 9 13 20 0 20 -7 25 -19 13z"/>
<path d="M3234 399 c-3 -5 0 -17 7 -25 10 -12 14 -12 20 -2 5 7 9 16 9 19 0
12 -29 18 -36 8z"/>
<path d="M2954 389 c-5 -9 -2 -10 9 -6 10 4 21 -1 29 -12 11 -16 17 -17 30 -7
9 7 14 16 10 22 -11 14 -69 17 -78 3z"/>
<path d="M4077 387 c-3 -8 -1 -20 3 -28 7 -11 14 -9 34 10 14 14 24 27 21 30
-3 2 -12 -5 -21 -17 -16 -24 -37 -21 -27 3 3 8 3 15 0 15 -3 0 -7 -6 -10 -13z"/>
<path d="M4281 374 c0 -11 3 -14 6 -6 3 7 2 16 -1 19 -3 4 -6 -2 -5 -13z"/>
<path d="M1735 369 c-4 -6 -5 -12 -2 -15 2 -3 7 2 10 11 7 17 1 20 -8 4z"/>
<path d="M4201 344 c-12 -20 -19 -39 -16 -42 9 -9 67 57 60 68 -11 18 -23 11
-44 -26z"/>
<path d="M3133 353 c-7 -3 -13 -11 -13 -18 0 -16 38 -27 46 -13 8 13 -17 37
-33 31z"/>
<path d="M1765 340 c-3 -5 -2 -10 4 -10 5 0 13 5 16 10 3 6 2 10 -4 10 -5 0
-13 -4 -16 -10z"/>
<path d="M3210 340 c0 -5 5 -10 10 -10 6 0 10 5 10 10 0 6 -4 10 -10 10 -5 0
-10 -4 -10 -10z"/>
<path d="M3740 338 c0 -9 5 -20 10 -23 13 -8 13 5 0 25 -8 13 -10 13 -10 -2z"/>
<path d="M1150 329 c0 -5 -14 -15 -31 -21 -19 -7 -27 -14 -21 -20 15 -15 73
18 66 37 -7 17 -14 20 -14 4z"/>
<path d="M3268 315 c-3 -13 -1 -22 3 -19 5 3 9 -2 9 -11 0 -9 -5 -13 -11 -10
-6 4 -10 1 -8 -6 4 -33 -1 -50 -13 -43 -7 4 -10 4 -6 -1 4 -4 3 -14 -3 -21 -6
-8 -7 -14 0 -18 6 -4 14 2 20 12 13 24 52 22 62 -4 7 -18 8 -18 8 2 1 11 6 25
13 32 9 9 4 13 -20 18 -36 7 -42 29 -11 39 21 7 21 8 -6 31 -16 13 -29 24 -30
24 -2 0 -5 -11 -7 -25z"/>
<path d="M3915 330 c3 -5 8 -10 11 -10 2 0 4 5 4 10 0 6 -5 10 -11 10 -5 0 -7
-4 -4 -10z"/>
<path d="M3859 315 c-2 -11 3 -35 13 -53 12 -25 14 -40 7 -59 -5 -13 -9 -34
-9 -46 0 -35 17 -6 28 48 9 40 8 53 -4 66 -8 8 -11 19 -7 22 3 4 1 7 -5 7 -6
0 -12 8 -14 18 -4 15 -5 14 -9 -3z"/>
<path d="M2755 274 c-9 -14 -15 -27 -13 -30 2 -2 12 10 22 26 21 37 15 40 -9
4z"/>
<path d="M3155 260 c-8 -16 -11 -30 -6 -30 14 0 42 48 31 55 -5 3 -16 -8 -25
-25z"/>
<path d="M3210 280 c0 -5 5 -10 11 -10 5 0 7 5 4 10 -3 6 -8 10 -11 10 -2 0
-4 -4 -4 -10z"/>
<path d="M4072 264 c-6 -11 -17 -15 -31 -11 -27 7 -44 -22 -32 -55 9 -25 19
-27 32 -6 4 7 16 13 25 13 9 0 20 10 25 23 5 14 5 22 -2 22 -6 0 -9 7 -5 15 7
20 -1 19 -12 -1z"/>
<path d="M407 250 c3 -11 9 -23 14 -26 12 -7 11 -24 -2 -24 -5 0 -7 5 -4 10 3
6 -1 10 -9 10 -22 0 -20 -27 2 -32 32 -9 41 1 30 32 -12 36 -39 62 -31 30z"/>
<path d="M720 260 c0 -5 5 -10 10 -10 6 0 10 5 10 10 0 6 -4 10 -10 10 -5 0
-10 -4 -10 -10z"/>
<path d="M1579 258 c-1 -7 -1 -16 0 -20 0 -4 -5 -5 -13 -2 -8 3 -17 1 -21 -5
-4 -7 4 -11 19 -11 21 0 26 5 26 25 0 25 -9 35 -11 13z"/>
<path d="M3925 260 c3 -5 8 -10 11 -10 2 0 4 5 4 10 0 6 -5 10 -11 10 -5 0 -7
-4 -4 -10z"/>
<path d="M866 242 c-3 -5 1 -15 9 -22 16 -14 20 -3 6 19 -5 8 -11 9 -15 3z"/>
<path d="M1611 234 c0 -11 3 -14 6 -6 3 7 2 16 -1 19 -3 4 -6 -2 -5 -13z"/>
<path d="M3952 238 c3 -7 13 -15 22 -16 12 -3 17 1 14 10 -3 7 -13 15 -22 16
-12 3 -17 -1 -14 -10z"/>
<path d="M5281 239 c-20 -8 -22 -14 -17 -40 3 -17 15 -42 26 -56 11 -14 20
-35 20 -46 0 -35 13 -10 21 40 5 33 3 58 -7 81 -7 17 -14 32 -16 31 -2 0 -14
-5 -27 -10z"/>
<path d="M3392 223 c5 -7 14 -10 19 -7 16 10 9 23 -10 21 -15 -1 -17 -4 -9
-14z"/>
<path d="M1469 225 c-13 -13 16 -55 39 -55 17 0 22 6 22 25 0 22 -3 24 -19 15
-26 -13 -29 -13 -33 6 -2 9 -6 13 -9 9z"/>
<path d="M2760 223 c-34 -10 -90 -37 -90 -44 0 -4 -2 -13 -5 -21 -3 -7 0 -20
5 -28 8 -12 12 -13 19 -2 4 7 14 14 22 16 8 1 25 8 39 16 14 8 31 14 39 15 19
0 27 25 8 25 -9 0 -17 6 -19 13 -2 8 -10 12 -18 10z"/>
<path d="M707 214 c-4 -4 -7 -16 -7 -26 0 -10 -5 -17 -12 -15 -7 1 -17 -8 -23
-20 -5 -13 -16 -23 -23 -23 -8 0 -10 -8 -6 -25 4 -17 1 -27 -9 -31 -18 -7 -11
-44 9 -44 8 0 14 -7 14 -15 0 -8 8 -15 18 -15 11 0 13 3 5 8 -16 10 -14 72 3
72 10 0 13 10 9 35 -4 37 11 57 26 34 8 -11 12 -10 25 6 12 16 17 17 23 7 7
-12 12 -12 30 -1 11 8 21 17 21 22 0 4 5 5 10 2 6 -3 13 1 16 10 11 27 -5 30
-31 5 -21 -19 -25 -21 -25 -7 0 10 -8 17 -19 17 -11 0 -26 2 -33 5 -8 3 -17 2
-21 -1z"/>
<path d="M2515 200 c-3 -5 -1 -10 4 -10 6 0 11 5 11 10 0 6 -2 10 -4 10 -3 0
-8 -4 -11 -10z"/>
<path d="M1230 168 c0 -10 7 -18 15 -18 8 0 15 8 15 18 0 10 -7 19 -15 19 -8
0 -15 -9 -15 -19z"/>
<path d="M963 173 c-18 -7 -16 -23 7 -77 24 -53 40 -59 40 -16 0 18 6 33 15
36 21 8 19 21 -4 27 -13 3 -21 -1 -24 -12 -4 -14 -5 -14 -6 1 0 9 4 20 9 23
28 17 -3 32 -37 18z"/>
<path d="M5895 172 c-11 -11 -4 -21 10 -16 9 4 15 0 15 -10 0 -9 -7 -16 -15
-16 -17 0 -20 -11 -5 -26 6 -6 1 -20 -14 -38 -18 -24 -27 -28 -50 -22 -14 3
-32 17 -38 31 -8 19 -15 22 -28 15 -10 -5 -20 -7 -23 -3 -4 3 -13 1 -20 -5 -8
-7 -17 -9 -21 -5 -4 4 -11 1 -17 -7 -8 -13 -11 -13 -22 2 -11 14 -25 15 -106
9 -62 -5 -96 -13 -102 -22 -13 -19 -7 -51 10 -57 10 -3 12 0 7 13 -5 15 -4 16
8 6 9 -8 24 -10 38 -5 38 13 52 16 79 18 14 2 31 6 37 10 7 4 12 1 12 -6 0 -8
-12 -19 -27 -25 -21 -8 64 -11 339 -12 l368 -1 -51 50 c-28 28 -54 48 -59 45
-5 -3 -11 -1 -15 4 -4 7 -15 7 -32 0 -16 -6 -30 -6 -37 0 -8 7 -21 6 -39 -4
-24 -12 -27 -12 -32 6 -4 12 -15 19 -32 19 -16 0 -24 5 -21 13 3 6 -4 20 -14
30 -10 9 -18 12 -18 6 0 -7 -7 -8 -17 -4 -25 9 -61 13 -68 7z"/>
<path d="M3925 160 c3 -5 11 -10 16 -10 6 0 7 5 4 10 -3 6 -11 10 -16 10 -6 0
-7 -4 -4 -10z"/>
<path d="M3280 139 c0 -7 -10 -9 -25 -7 -36 7 -40 -7 -16 -54 19 -39 19 -76 0
-47 -8 12 -11 11 -19 -1 -8 -13 -10 -12 -10 3 0 9 -4 17 -10 17 -5 0 -10 7
-10 15 0 8 7 15 15 15 8 0 15 7 15 15 0 17 -9 19 -28 6 -8 -5 -12 -24 -10 -54
l3 -47 68 0 c63 0 67 1 67 23 l1 22 19 -24 c25 -29 50 -21 49 16 -1 16 -3 21
-6 11 -4 -16 -7 -15 -39 2 -29 17 -34 17 -34 4 0 -18 -31 -15 -38 4 -2 7 2 11
8 10 19 -5 23 18 6 35 -14 13 -14 16 -1 21 17 6 20 26 5 26 -5 0 -10 -5 -10
-11z"/>
<path d="M2835 128 c-11 -6 -23 -15 -26 -20 -3 -6 -10 -9 -15 -8 -5 0 -10 -6
-12 -14 -5 -23 23 -19 54 7 31 27 31 52 -1 35z"/>
<path d="M130 101 c0 -11 -5 -21 -11 -23 -6 -2 -9 -19 -6 -38 3 -31 5 -32 12
-13 4 12 16 25 26 28 11 4 16 11 13 17 -4 6 1 8 16 3 15 -5 21 -3 18 5 -2 6
-7 10 -11 8 -5 -2 -13 5 -18 15 -13 23 -39 22 -39 -2z"/>
<path d="M3333 113 c-7 -3 -13 -9 -13 -14 0 -6 4 -7 10 -4 6 4 7 -1 3 -10 -4
-13 -1 -16 13 -13 10 2 19 10 19 18 1 8 6 14 13 13 7 -2 12 1 12 6 0 9 -36 11
-57 4z"/>
<path d="M3584 96 c-3 -14 -13 -26 -21 -26 -17 0 -9 -37 14 -60 14 -13 15 -12
9 14 l-7 30 20 -25 21 -24 -6 50 c-6 59 -20 79 -30 41z"/>
<path d="M712 98 c-14 -14 -16 -32 -3 -24 5 4 12 -12 16 -34 8 -45 21 -51 35
-18 9 23 9 23 10 -2 l2 -25 10 28 c12 34 26 35 34 2 5 -19 13 -25 33 -25 15 0
30 3 34 6 9 9 -4 34 -18 34 -7 0 -28 15 -46 32 -39 37 -69 45 -69 17 0 -11 -5
-19 -11 -19 -6 0 -9 9 -6 20 6 23 -3 26 -21 8z"/>
<path d="M4032 84 c-7 -8 -8 -14 -3 -14 10 0 25 19 20 25 -2 1 -10 -3 -17 -11z"/>
<path d="M551 74 c0 -11 3 -14 6 -6 3 7 2 16 -1 19 -3 4 -6 -2 -5 -13z"/>
<path d="M3421 77 c-13 -16 -5 -28 15 -20 9 3 14 -2 14 -15 0 -27 -17 -37 -23
-15 -4 14 -5 13 -6 -4 -1 -25 18 -30 37 -11 9 9 12 9 12 0 0 -7 5 -12 11 -12
15 0 2 50 -18 73 -19 21 -27 21 -42 4z"/>
<path d="M527 56 c-4 -11 -13 -16 -22 -12 -10 4 -15 -1 -15 -14 0 -11 5 -20
10 -20 6 0 10 5 10 10 0 6 11 10 25 10 16 0 25 -6 25 -15 0 -8 5 -15 11 -15 6
0 8 7 5 16 -3 9 -6 18 -6 20 0 2 -6 4 -14 4 -8 0 -16 8 -18 18 -3 16 -4 16
-11 -2z"/>
<path d="M3750 30 c0 -20 5 -30 14 -30 12 0 13 6 5 30 -6 17 -13 30 -15 30 -2
0 -4 -13 -4 -30z"/>
<path d="M3981 34 c0 -11 3 -14 6 -6 3 7 2 16 -1 19 -3 4 -6 -2 -5 -13z"/>
<path d="M4043 15 c0 -8 4 -12 9 -9 5 3 6 10 3 15 -9 13 -12 11 -12 -6z"/>
<path d="M178 3 c7 -3 16 -2 19 1 4 3 -2 6 -13 5 -11 0 -14 -3 -6 -6z"/>
</g>
</svg>
