<?xml version="1.0" standalone="no"?>
<!DOCTYPE svg PUBLIC "-//W3C//DTD SVG 20010904//EN"
 "http://www.w3.org/TR/2001/REC-SVG-20010904/DTD/svg10.dtd">
<svg version="1.0" xmlns="http://www.w3.org/2000/svg"
 width="1024.000000pt" height="1024.000000pt" viewBox="0 0 1024.000000 1024.000000"
 preserveAspectRatio="xMidYMid meet">

<g transform="translate(0.000000,1024.000000) scale(0.100000,-0.100000)"
fill="#000000" stroke="none">
<path d="M1452 6280 c-121 -18 -261 -119 -316 -228 -56 -110 -57 -127 -54
-810 l3 -627 23 -58 c44 -109 140 -205 249 -248 l58 -24 690 0 690 0 58 24
c109 43 205 139 249 248 l23 58 3 632 c2 556 1 640 -13 695 -46 177 -188 309
-365 337 -75 13 -1215 13 -1298 1z m408 -641 l0 -301 39 49 c22 26 77 93 123
149 45 56 139 169 208 252 l125 152 167 0 c93 0 168 -3 168 -8 0 -4 -37 -52
-82 -107 -46 -56 -165 -201 -266 -323 l-183 -223 138 -166 c76 -92 206 -250
290 -353 l152 -185 -177 -3 -177 -3 -39 43 c-21 24 -138 164 -260 311 l-221
269 -3 -311 -2 -311 -145 0 -145 0 0 685 0 685 145 0 145 0 0 -301z"/>
<path d="M3642 5263 l3 -687 118 -1 118 0 0 313 c0 177 3 312 9 312 9 0 54
-52 334 -390 99 -118 183 -219 188 -225 11 -12 308 -18 308 -6 0 5 -3 11 -8
13 -4 2 -23 23 -42 48 -19 25 -146 179 -282 343 -137 164 -248 302 -248 306 0
4 10 16 21 27 18 16 482 559 528 617 13 16 5 17 -137 17 l-151 0 -253 -304
c-138 -168 -255 -303 -259 -300 -4 2 -7 138 -8 301 l-1 298 -120 3 -120 3 2
-688z"/>
<path d="M8890 5263 l0 -688 115 0 c63 0 115 3 115 8 0 4 0 313 0 687 l0 680
-115 0 -115 0 0 -687z"/>
<path d="M5127 5599 c-67 -13 -153 -53 -203 -94 -48 -40 -100 -134 -110 -202
l-7 -43 110 0 110 0 18 45 c28 76 100 115 209 115 73 0 131 -24 169 -69 32
-38 40 -64 35 -117 -4 -46 6 -43 -250 -73 -191 -22 -271 -44 -328 -89 -151
-122 -139 -351 23 -459 67 -45 135 -63 238 -63 137 0 251 46 309 125 14 19 15
16 20 -40 l5 -60 108 -2 108 -3 -3 373 c-4 416 -6 430 -77 523 -85 112 -294
169 -484 133z m339 -626 c-16 -160 -114 -247 -276 -247 -87 0 -131 18 -160 67
-46 75 -7 160 90 192 40 13 268 50 334 54 17 1 18 -4 12 -66z"/>
<path d="M6363 5600 c-67 -14 -125 -49 -180 -108 l-53 -56 0 77 0 77 -105 0
-105 0 0 -509 0 -508 120 -2 119 -1 3 343 3 342 33 52 c71 110 228 138 315 56
62 -60 62 -56 67 -438 l5 -350 117 -3 117 -3 3 343 3 343 28 47 c71 121 248
143 336 43 45 -52 51 -103 51 -455 l0 -320 116 0 115 0 -3 383 c-3 375 -4 383
-27 442 -32 80 -107 154 -186 185 -49 20 -78 24 -160 24 -133 -1 -195 -24
-279 -106 l-61 -59 -15 23 c-27 43 -85 91 -138 115 -58 27 -169 38 -239 23z"/>
<path d="M8044 5596 c-164 -38 -277 -148 -300 -293 l-7 -43 109 0 109 0 25 53
c21 44 34 56 79 80 90 45 212 36 275 -22 51 -46 75 -143 42 -170 -8 -7 -90
-21 -183 -32 -92 -10 -200 -26 -240 -35 -166 -36 -264 -155 -249 -306 18 -184
170 -288 402 -276 79 4 104 10 159 37 37 19 79 49 99 73 l35 40 3 -62 3 -62
108 -5 108 -5 -4 378 c-2 263 -7 390 -15 416 -34 102 -132 191 -247 224 -80
23 -233 27 -311 10z m351 -618 c-9 -81 -28 -124 -72 -170 -97 -100 -284 -114
-358 -27 -37 45 -36 120 3 159 37 37 136 66 272 80 58 7 107 13 109 16 2 2 15
4 29 4 24 0 24 -1 17 -62z"/>
</g>
</svg>
